<svg xmlns:xlink="http://www.w3.org/1999/xlink" xmlns="http://www.w3.org/2000/svg" version="1.1" width="17px"
  height="9px">
  <g transform="matrix(1 0 0 1 -369 -67 )">
    <path
      d="M 1.1806928571428554 1.1016500000000065  C 0.9520357142857143 0.9178571428571445  0.9375357142857143 0.5571428571428498  1.1518214285714286 0.32500000000001705  C 1.264 0.20357142857142208  1.4175 0.11071428571429465  1.5714285714285716 0.11071428571429465  C 1.710392857142857 0.11071428571429465  1.8493214285714283 0.16092857142857042  1.959285714285714 0.26250000000001705  L 8.998571428571427 6.7303571428571445  L 16.037857142857142 0.26250000000001705  C 16.269999999999996 0.04821428571429465  16.632142857142853 0.06160714285715585  16.84535714285714 0.2948642857142829  C 17.059642857142855 0.5270071428571441  17.045142857142853 0.887364285714284  16.81355 1.1016500000000065  L 9.384978571428569 7.958792857142839  C 9.165121428571426 8.161935714285733  8.829264285714284 8.161935714285733  8.609264285714284 7.958792857142839  L 1.1806928571428554 1.1016500000000065  Z "
      fill-rule="nonzero" fill="#ffffff" stroke="none" transform="matrix(1 0 0 1 369 67 )" />
  </g>
</svg>