<svg width="19" height="12" viewBox="0 0 6 12" fill="none" xmlns="http://www.w3.org/2000/svg">
<path d="M3.42373 0.212153C3.24074 -0.0707178 2.75876 -0.0707178 2.57577 0.212153L0.0758585 4.08048C-0.0201379 4.22941 -0.0256377 4.4175 0.062859 4.57127C0.151356 4.72504 0.31785 4.82029 0.499843 4.82029H5.49966C5.68165 4.82029 5.84864 4.72504 5.93714 4.57127C6.02564 4.4175 6.02014 4.22941 5.92414 4.08048L3.42373 0.212153Z" fill="#151515"/>
<path d="M5.49991 6.271H0.500093C0.3186 6.271 0.151106 6.36625 0.0626091 6.52002C-0.0253877 6.67379 -0.0203879 6.86188 0.0761085 7.01081L2.57602 10.8791C2.66751 11.0203 2.82751 11.1064 3 11.1064C3.17249 11.1064 3.33249 11.0203 3.42398 10.8791L5.92389 7.01081C6.02039 6.86188 6.02539 6.67379 5.93739 6.52002C5.84889 6.36625 5.6814 6.271 5.49991 6.271Z" fill="#151515"/>
</svg>
