<svg width="650" height="828" viewBox="0 0 650 828" fill="none" xmlns="http://www.w3.org/2000/svg">
<rect width="56.0733" height="428.335" rx="28.0366" transform="matrix(-0.783808 0.621004 0.621004 0.783808 214.043 17.0322)" stroke="#CE9611"/>
<rect opacity="0.9" x="-0.0814022" y="0.702406" width="31.0998" height="254.485" rx="15.5499" transform="matrix(-0.783808 0.621004 0.621004 0.783808 482.571 595.34)" stroke="#2F7E61"/>
<rect width="49.5831" height="310.607" rx="24.7916" transform="matrix(-0.783808 0.621004 0.621004 0.783808 456.645 423.033)" stroke="#FDB913"/>
<rect x="537.945" y="731.737" width="14.7683" height="35.0311" rx="7.38416" transform="rotate(-37.1819 537.945 731.737)" fill="#FDB913"/>
<rect x="564.016" y="763.902" width="14.7683" height="78.3453" rx="7.38416" transform="rotate(-37.1819 564.016 763.902)" fill="#FDB913"/>
<rect x="521.539" y="710.107" width="14.7683" height="20.1482" rx="7.38416" transform="rotate(-37.1819 521.539 710.107)" fill="#FDB913"/>
<rect x="16.4062" y="83.978" width="14.7683" height="86.3021" rx="7.38416" transform="rotate(-37.1819 16.4062 83.978)" fill="#69CC97"/>
<rect x="169.316" y="240.794" width="13.7683" height="99.3465" rx="6.88416" transform="rotate(-38.8609 169.316 240.794)" stroke="#69CC97"/>
<rect opacity="0.9" x="-0.0814022" y="0.702406" width="31.0998" height="254.485" rx="15.5499" transform="matrix(-0.783808 0.621004 0.621004 0.783808 25.6608 87.1873)" stroke="#003082"/>
<rect y="62.3481" width="14.7683" height="20.1482" rx="7.38416" transform="rotate(-37.1819 0 62.3481)" fill="#69CC97"/>
<rect x="110.621" y="166.761" width="13.7683" height="11.7085" rx="5.85423" transform="rotate(-38.8609 110.621 166.761)" stroke="#69CC97"/>
<rect x="127.355" y="188.682" width="13.7683" height="57.5323" rx="6.88416" transform="rotate(-38.8609 127.355 188.682)" stroke="#69CC97"/>
<rect x="71.4101" y="119.664" width="13.7683" height="54.1344" rx="6.88416" transform="rotate(-38.8609 71.4101 119.664)" stroke="#69CC97"/>
<rect opacity="0.5" width="32.0998" height="476.18" rx="16.0499" transform="matrix(-0.783808 0.621004 0.621004 0.783808 198.055 213.206)" fill="#FDB913"/>
<rect width="14.467" height="66.0441" rx="7.23351" transform="matrix(-0.888745 0.458402 0.618447 0.785826 378.809 522.32)" fill="#69CC97"/>
<rect width="14.467" height="26.3521" rx="7.23351" transform="matrix(-0.888745 0.458402 0.618447 0.785826 354.641 487.23)" fill="#69CC97"/>
</svg>
