<svg width="425" height="260" viewBox="0 0 425 260" fill="none" xmlns="http://www.w3.org/2000/svg">
<rect width="56.0733" height="428.335" rx="28.0366" transform="matrix(-0.783808 0.621004 0.621004 0.783808 214.043 -75.522)" stroke="#CE9611"/>
<rect x="16.4062" y="-8.57617" width="14.7683" height="86.3021" rx="7.38416" transform="rotate(-37.1819 16.4062 -8.57617)" fill="#69CC97"/>
<rect x="169.316" y="148.24" width="13.7683" height="99.3465" rx="6.88416" transform="rotate(-38.8609 169.316 148.24)" stroke="#69CC97"/>
<rect opacity="0.9" x="-0.0814022" y="0.702406" width="31.0998" height="254.485" rx="15.5499" transform="matrix(-0.783808 0.621004 0.621004 0.783808 25.6608 -5.36693)" stroke="#003082"/>
<rect x="110.621" y="74.2065" width="13.7683" height="11.7085" rx="5.85423" transform="rotate(-38.8609 110.621 74.2065)" stroke="#69CC97"/>
<rect x="127.355" y="96.1274" width="13.7683" height="57.5323" rx="6.88416" transform="rotate(-38.8609 127.355 96.1274)" stroke="#69CC97"/>
<rect x="71.4101" y="27.1098" width="13.7683" height="54.1344" rx="6.88416" transform="rotate(-38.8609 71.4101 27.1098)" stroke="#69CC97"/>
<rect opacity="0.5" width="32.0998" height="476.18" rx="16.0499" transform="matrix(-0.783808 0.621004 0.621004 0.783808 198.055 120.651)" fill="#FDB913"/>
</svg>
