<svg width="20" height="24" viewBox="0 0 20 24" fill="none" xmlns="http://www.w3.org/2000/svg">
<path d="M10.2031 23.5C11.5094 23.5 12.5781 22.4385 12.5781 21.141H7.82812C7.82812 22.4385 8.89688 23.5 10.2031 23.5ZM17.3281 16.4231V10.5256C17.3281 6.90462 15.3925 3.87333 11.9844 3.07128V2.26923C11.9844 1.29026 11.1888 0.5 10.2031 0.5C9.2175 0.5 8.42188 1.29026 8.42188 2.26923V3.07128C5.02563 3.87333 3.07812 6.89282 3.07812 10.5256V16.4231L0.703125 18.7821V19.9615H19.7031V18.7821L17.3281 16.4231ZM14.9531 17.6026H5.45312V10.5256C5.45312 7.60051 7.24625 5.21795 10.2031 5.21795C13.16 5.21795 14.9531 7.60051 14.9531 10.5256V17.6026Z" fill="#003356"/>
</svg>
