<?xml version="1.0" encoding="utf-8"?>
<svg version="1.1" xmlns:xlink="http://www.w3.org/1999/xlink" width="25px" height="38px" xmlns="http://www.w3.org/2000/svg">
  <defs>
    <filter x="212px" y="408px" width="25px" height="38px" filterUnits="userSpaceOnUse" id="filter35">
      <feOffset dx="0" dy="0" in="SourceAlpha" result="shadowOffsetInner" />
      <feGaussianBlur stdDeviation="2.5" in="shadowOffsetInner" result="shadowGaussian" />
      <feComposite in2="shadowGaussian" operator="atop" in="SourceAlpha" result="shadowComposite" />
      <feColorMatrix type="matrix" values="0 0 0 0 0  0 0 0 0 0  0 0 0 0 0  0 0 0 0.3137254901960784 0  " in="shadowComposite" />
    </filter>
    <g id="widget36">
      <path d="M 14.03258125 27.081874999999997  C 13.4375 27.65625  12.4875 27.6375  11.91875 27.0375  L 0.47500000000000053 15.09375  C 0.13875000000000082 14.693750000000001  0 14.318750000000003  0 14  C 0 13.681249999999999  0.1386875000000014 13.251875  0.41800000000000104 12.963125  L 11.86175 1.0193750000000001  C 12.43375 0.41975000000000007  13.383 0.4002500000000002  13.9805 0.9744562500000002  C 14.5820625 1.5447687500000002  14.601624999999999 2.4975812500000005  14.02541875 3.09383125  L 3.5775000000000006 14  L 14.0775 24.9625  C 14.6536875 25.55625  14.634125000000001 26.511249999999997  14.03258125 27.081874999999997  Z " fill-rule="nonzero" fill="#ffffff" stroke="none" transform="matrix(1 0 0 1 217 413 )" />
    </g>
  </defs>
  <g transform="matrix(1 0 0 1 -212 -408 )">
    <use xlink:href="#widget36" filter="url(#filter35)" />
    <use xlink:href="#widget36" />
  </g>
</svg>