<svg width="23" height="22" viewBox="0 0 23 22" fill="none" xmlns="http://www.w3.org/2000/svg">
<path d="M1.19434 1.06833L3.72313 1.25326L7.3133 13.0007H19.3301L21.9996 4.48562H7.46205" stroke="#003356" stroke-linecap="round" stroke-linejoin="round"/>
<path d="M7.30099 12.9324C7.30099 14.4642 7.16831 15.7064 8.70006 15.7064H19.8485" stroke="#003356" stroke-linecap="round" stroke-linejoin="round"/>
<path d="M17.7143 20.8283C18.4693 20.8283 19.0812 20.2163 19.0812 19.4614C19.0812 18.7065 18.4693 18.0945 17.7143 18.0945C16.9594 18.0945 16.3474 18.7065 16.3474 19.4614C16.3474 20.2163 16.9594 20.8283 17.7143 20.8283Z" stroke="#003356" stroke-linecap="round" stroke-linejoin="round"/>
<path d="M8.39133 20.8283C9.14626 20.8283 9.75825 20.2163 9.75825 19.4614C9.75825 18.7065 9.14626 18.0945 8.39133 18.0945C7.6364 18.0945 7.02441 18.7065 7.02441 19.4614C7.02441 20.2163 7.6364 20.8283 8.39133 20.8283Z" stroke="#003356" stroke-linecap="round" stroke-linejoin="round"/>
<path d="M18.1569 7.52896H8.38745" stroke="#003356" stroke-linecap="round" stroke-linejoin="round"/>
<path d="M17.4966 10.3674H9.07397" stroke="#003356" stroke-linecap="round" stroke-linejoin="round"/>
</svg>
