<svg width="22" height="22" viewBox="0 0 22 22" fill="none" xmlns="http://www.w3.org/2000/svg">
<path d="M19 0H3C2.20435 0 1.44129 0.31607 0.87868 0.87868C0.31607 1.44129 0 2.20435 0 3V19C0 19.7956 0.31607 20.5587 0.87868 21.1213C1.44129 21.6839 2.20435 22 3 22H19C19.7956 22 20.5587 21.6839 21.1213 21.1213C21.6839 20.5587 22 19.7956 22 19V3C22 2.20435 21.6839 1.44129 21.1213 0.87868C20.5587 0.31607 19.7956 0 19 0ZM17.707 6.707L8.707 15.707C8.51947 15.8945 8.26516 15.9998 8 15.9998C7.73484 15.9998 7.48053 15.8945 7.293 15.707L4.293 12.707C4.11084 12.5184 4.01005 12.2658 4.01233 12.0036C4.0146 11.7414 4.11977 11.4906 4.30518 11.3052C4.49059 11.1198 4.7414 11.0146 5.0036 11.0123C5.2658 11.01 5.5184 11.1108 5.707 11.293L8 13.586L16.293 5.293C16.3852 5.19749 16.4956 5.12131 16.6176 5.0689C16.7396 5.01649 16.8708 4.9889 17.0036 4.98775C17.1364 4.9866 17.2681 5.0119 17.391 5.06218C17.5138 5.11246 17.6255 5.18671 17.7194 5.2806C17.8133 5.3745 17.8875 5.48615 17.9378 5.60905C17.9881 5.73194 18.0134 5.86362 18.0123 5.9964C18.0111 6.12918 17.9835 6.2604 17.9311 6.3824C17.8787 6.50441 17.8025 6.61475 17.707 6.707Z" fill="#003356"/>
</svg>
