<?xml version="1.0" encoding="utf-8"?>
<svg viewBox="0 0 500 500" xmlns="http://www.w3.org/2000/svg">
  <path d="M 97.821 215.741 L 119.482 215.741 L 396.31 217.756 L 396.781 281.677 L 119.482 282.323 L 97.821 282.323 L 97.821 215.741 Z" fill="#003356" style=""/>
  <path d="M 409.516 23.095 C 444.816 23.095 473.516 51.952 473.516 87.556 L 473.516 409.862 C 473.516 445.416 444.816 474.323 409.516 474.323 L 89.516 474.323 C 54.166 474.323 25.516 445.416 25.516 409.862 L 25.516 87.556 C 25.516 51.952 54.166 23.095 89.516 23.095 L 409.516 23.095 Z M 409.516 55.326 L 89.516 55.326 C 71.846 55.326 57.516 69.759 57.516 87.556 L 57.516 409.862 C 57.516 427.689 71.846 442.092 89.516 442.092 L 409.516 442.092 C 427.216 442.092 441.516 427.689 441.516 409.862 L 441.516 87.556 C 441.516 69.759 427.216 55.326 409.516 55.326 Z" fill="#003356" style=""/>
</svg>