<?xml version="1.0" encoding="utf-8"?>
<svg version="1.1" xmlns:xlink="http://www.w3.org/1999/xlink" width="16px" height="16px" xmlns="http://www.w3.org/2000/svg">
  <g transform="matrix(1 0 0 1 -234 -206 )">
    <path d="M 16 8  C 16 3.5812500000000007  12.41875 0  8 0  C 3.58125 0  0 3.58125  0 8  C 0 12.41875  3.58125 16  8 16  C 12.41875 16  16 12.41875  16 8  Z M 15 8  C 15 11.859375  11.859375 15  8 15  C 4.140625 15  1 11.859375  1 8  C 1 4.140625  4.140625 1  8 1  C 11.859375 1  15 4.140625  15 8  Z M 11.380625 4.825  C 11.559375 4.615625  11.534375 4.3  11.325 4.11875  C 11.116 3.9390625  10.799999999999999 3.9644375000000003  10.620312499999999 4.1734375  L 8 7.23125  L 5.379375 4.17375  C 5.2 3.965625  4.884375 3.94375  4.675 4.11875  C 4.46503125 4.2984375  4.440625 4.615  4.6208124999999995 4.82375  L 7.340625 8  L 4.619375 11.175  C 4.4391875 11.384  4.4636249999999995 11.7003125  4.6735625 11.88  C 4.76875 11.9625  4.884375 12  5 12  C 5.140625 12  5.28075 11.9404375  5.379375 11.8251875  L 8 8.76875  L 10.620625 11.826250000000002  C 10.71875 11.940625  10.859375 12  11 12  C 11.11525 12  11.23096875 11.95996875  11.3253125 11.879875  C 11.53528125 11.7001875  11.5596875 11.383625  11.3795 11.174875  L 8.659375 8  L 11.380625 4.825  Z " fill-rule="nonzero" fill="#000000" stroke="none" transform="matrix(1 0 0 1 234 206 )" />
  </g>
</svg>