<?xml version="1.0" encoding="utf-8"?>
<svg version="1.1" xmlns:xlink="http://www.w3.org/1999/xlink" width="24px" height="24px" xmlns="http://www.w3.org/2000/svg">
  <g transform="matrix(1 0 0 1 -296 -630 )">
    <path d="M 24 12  C 24 5.371875000000001  18.628124999999997 0  12 0  C 5.371875 0  0 5.371875  0 12  C 0 18.628124999999997  5.371875 24  12 24  C 18.628124999999997 24  24 18.628124999999997  24 12  Z M 22.5 12  C 22.5 17.7890625  17.7890625 22.5  12 22.5  C 6.2109375 22.5  1.5 17.7890625  1.5 12  C 1.5 6.2109375  6.2109375 1.5  12 1.5  C 17.7890625 1.5  22.5 6.2109375  22.5 12  Z M 11.25 13.5  C 11.25 13.912500000000001  11.5875 14.25  12 14.25  C 12.414562499999999 14.25  12.75 13.914562499999999  12.75 13.5  L 12.75 6  C 12.75 5.585437499999999  12.414562499999999 5.25  12 5.25  C 11.585437500000001 5.25  11.25 5.5875  11.25 6  L 11.25 13.5  Z M 13.125 17.25  C 13.125 16.62890625  12.623437500000001 16.125  12 16.125  C 11.37890625 16.125  10.875 16.62890625  10.875 17.25  C 10.875 17.87109375  11.37890625 18.375  12 18.375  C 12.62109375 18.375  13.125 17.87109375  13.125 17.25  Z " fill-rule="nonzero" fill="#a80005" stroke="none" transform="matrix(1 0 0 1 296 630 )" />
  </g>
</svg>