<?xml version="1.0" encoding="utf-8"?>
<svg version="1.1" xmlns:xlink="http://www.w3.org/1999/xlink" width="20px" height="20px" xmlns="http://www.w3.org/2000/svg">
  <g transform="matrix(1 0 0 1 -365 -986 )">
    <path d="M 20 10  C 20 4.476562500000001  15.5234375 0  10 0  C 4.4765625 0  0 4.4765625  0 10  C 0 15.5234375  4.4765625 20  10 20  C 15.5234375 20  20 15.5234375  20 10  Z M 18.75 10  C 18.75 14.82421875  14.82421875 18.75  10 18.75  C 5.17578125 18.75  1.25 14.82421875  1.25 10  C 1.25 5.17578125  5.17578125 1.25  10 1.25  C 14.82421875 1.25  18.75 5.17578125  18.75 10  Z M 9.0625 6.25  C 9.0625 6.76953125  9.48046875 7.1875  10 7.1875  C 10.517578125 7.1875  10.9375 6.76796875  10.9375 6.25  C 10.9375 5.732421875  10.517578125 5.3125  10 5.3125  C 9.482421875 5.3125  9.0625 5.73046875  9.0625 6.25  Z M 12.5 14.375  C 12.5 14.03125  12.21875 13.75  11.875 13.75  L 10.625 13.75  L 10.625 9.375  C 10.625 9.03125  10.34375 8.75  10 8.75  L 8.75 8.75  C 8.40625 8.75  8.125 9.03125  8.125 9.375  C 8.125 9.71875  8.40625 10  8.75 10  L 9.375 10  L 9.375 13.75  L 8.125 13.75  C 7.78125 13.75  7.5 14.03125  7.5 14.375  C 7.5 14.71875  7.78125 15  8.125 15  L 11.875 15  C 12.22015625 15  12.5 14.72015625  12.5 14.375  Z " fill-rule="nonzero" fill="#ffffff" stroke="none" transform="matrix(1 0 0 1 365 986 )" />
  </g>
</svg>