<?xml version="1.0" encoding="utf-8"?>
<svg version="1.1" xmlns:xlink="http://www.w3.org/1999/xlink" width="24px" height="24px" xmlns="http://www.w3.org/2000/svg">
  <g transform="matrix(1 0 0 1 -296 -1047 )">
    <path d="M 24 12  C 24 5.371875000000001  18.628124999999997 0  12 0  C 5.371874999999999 0  0 5.371874999999999  0 12  C 0 18.628124999999997  5.371874999999999 24  12 24  C 18.628124999999997 24  24 18.628124999999997  24 12  Z M 22.5 12  C 22.5 17.7890625  17.7890625 22.5  12 22.5  C 6.2109375 22.5  1.5 17.7890625  1.5 12  C 1.5 6.2109375  6.2109375 1.5  12 1.5  C 17.7890625 1.5  22.5 6.2109375  22.5 12  Z M 10.875 7.5  C 10.875 8.123437500000001  11.376562499999999 8.625  12 8.625  C 12.62109375 8.625  13.125 8.1215625  13.125 7.5  C 13.125 6.87890625  12.62109375 6.375  12 6.375  C 11.37890625 6.375  10.875 6.8765624999999995  10.875 7.5  Z M 15 17.25  C 15 16.8375  14.662500000000001 16.5  14.25 16.5  L 12.75 16.5  L 12.75 11.25  C 12.75 10.837499999999999  12.412500000000001 10.5  12 10.5  L 10.5 10.5  C 10.087499999999999 10.5  9.75 10.837499999999999  9.75 11.25  C 9.75 11.662500000000001  10.087499999999999 12  10.5 12  L 11.25 12  L 11.25 16.5  L 9.75 16.5  C 9.337499999999999 16.5  9 16.8375  9 17.25  C 9 17.6625  9.337499999999999 18  9.75 18  L 14.25 18  C 14.6641875 18  15 17.6641875  15 17.25  Z " fill-rule="nonzero" fill="#3072be" stroke="none" transform="matrix(1 0 0 1 296 1047 )" />
  </g>
</svg>