<?xml version="1.0" encoding="utf-8"?>
<svg version="1.1" xmlns:xlink="http://www.w3.org/1999/xlink" width="24px" height="24px" xmlns="http://www.w3.org/2000/svg">
  <g transform="matrix(1 0 0 1 -296 -1257 )">
    <path d="M 17.0296875 9.529687500000001  L 11.029687500000001 15.529687500000001  C 10.7390625 15.825000000000001  10.2609375 15.825000000000001  9.970312499999999 15.529687500000001  L 6.9703124999999995 12.529687500000001  C 6.675000000000001 12.239062500000001  6.675000000000001 11.7609375  6.9703124999999995 11.470312499999999  C 7.260937500000001 11.175  7.739062499999999 11.175  8.029687500000001 11.470312499999999  L 10.5 13.940624999999999  L 15.970312499999999 8.470312499999999  C 16.260937499999997 8.175  16.739062500000003 8.175  17.0296875 8.470312499999999  C 17.325000000000003 8.7609375  17.325000000000003 9.2390625  17.0296875 9.529687500000001  Z M 12 0  C 18.628124999999997 0  24 5.371874999999999  24 12  C 24 18.628124999999997  18.628124999999997 24  12 24  C 5.371874999999999 24  0 18.628124999999997  0 12  C 0 5.371874999999999  5.371874999999999 0  12 0  Z M 22.5 12  C 22.5 6.2015625000000005  17.7984375 1.5  12 1.5  C 6.2015625000000005 1.5  1.5 6.2015625000000005  1.5 12  C 1.5 17.7984375  6.2015625000000005 22.5  12 22.5  C 17.7984375 22.5  22.5 17.7984375  22.5 12  Z " fill-rule="nonzero" fill="#2f7e61" stroke="none" transform="matrix(1 0 0 1 296 1257 )" />
  </g>
</svg>