<svg width="95" height="80" viewBox="0 0 95 80" fill="none" xmlns="http://www.w3.org/2000/svg">
<g clip-path="url(#clip0_846_35282)">
<path d="M73.3325 24.0167C71.4757 23.0314 69.5064 22.2737 67.4673 21.7601C65.3605 21.2306 63.1961 20.9635 61.0235 20.9649C57.513 20.958 54.0373 21.6585 50.8047 23.0244C47.6846 24.3381 44.8502 26.2447 42.4595 28.6379C40.0625 31.0241 38.152 33.8513 36.8336 36.9632C35.4647 40.1893 34.7627 43.658 34.7696 47.1613C34.7627 50.6647 35.4647 54.1333 36.8336 57.3595C38.1515 60.4715 40.0621 63.2989 42.4595 65.6847C44.8502 68.078 47.6846 69.9845 50.8047 71.2982C54.0373 72.6641 57.513 73.3646 61.0235 73.3577C64.5345 73.3646 68.0108 72.6641 71.244 71.2982C74.3639 69.9841 77.1982 68.0776 79.5893 65.6847C81.9866 63.2989 83.8972 60.4715 85.2151 57.3595C86.5832 54.1331 87.2853 50.6646 87.2792 47.1613C87.2853 43.658 86.5832 40.1895 85.2151 36.9632C85.0691 36.6204 84.7929 36.3493 84.4469 36.2094C84.101 36.0695 83.7136 36.0722 83.3696 36.2168C83.0254 36.3618 82.7531 36.6373 82.6125 36.9826C82.4719 37.328 82.4745 37.7149 82.6198 38.0583C83.8413 40.9381 84.4678 44.0342 84.4619 47.1613C84.4619 60.0659 73.9477 70.5483 61.0235 70.5483C48.0993 70.5483 37.5868 60.0572 37.5868 47.1613C37.5868 34.2654 48.101 23.776 61.0235 23.776C64.8533 23.7752 68.6251 24.7097 72.0095 26.4982C72.3394 26.6727 72.7252 26.7096 73.0823 26.6008C73.4394 26.4919 73.7387 26.2462 73.9145 25.9175C74.0899 25.5884 74.1271 25.2033 74.018 24.8468C73.9089 24.4904 73.6623 24.1918 73.3325 24.0167Z" fill="#A03137"/>
<path d="M31.0545 42.6282C31.1085 42.2593 31.0134 41.8842 30.7902 41.5853C30.567 41.2864 30.234 41.0882 29.8643 41.0343C29.4947 40.9804 29.1187 41.0753 28.8191 41.298C28.5196 41.5207 28.3209 41.853 28.2669 42.2219C27.3296 48.5939 28.2905 55.1004 31.03 60.9318C31.1437 61.1742 31.3242 61.3792 31.5505 61.5228C31.7768 61.6664 32.0394 61.7427 32.3076 61.7427C32.5136 61.7429 32.7171 61.6976 32.9036 61.6102C33.0719 61.533 33.2231 61.4232 33.3485 61.2872C33.4739 61.1511 33.571 60.9916 33.6341 60.8178C33.6972 60.6441 33.725 60.4595 33.716 60.2749C33.707 60.0903 33.6613 59.9093 33.5817 59.7425C31.0756 54.4084 30.1967 48.4568 31.0545 42.6282Z" fill="#A03137"/>
<path d="M93.7172 41.7712C93.0455 37.5643 91.5616 33.5275 89.348 29.885C89.0357 29.3688 88.7101 28.8625 88.371 28.3661L92.8294 24.4476C92.9683 24.3256 93.0818 24.1774 93.1633 24.0116C93.2448 23.8458 93.2927 23.6656 93.3044 23.4813C93.3161 23.297 93.2913 23.1122 93.2314 22.9375C93.1715 22.7628 93.0776 22.6016 92.9552 22.4631L89.7727 18.8567C89.6509 18.7182 89.5027 18.605 89.3368 18.5239C89.1709 18.4428 88.9906 18.3953 88.8062 18.3842C88.6214 18.3719 88.436 18.3965 88.2608 18.4563C88.0856 18.5162 87.924 18.6102 87.7855 18.7329L83.3796 22.6061C82.5698 21.8667 81.7216 21.1656 80.835 20.5029C78.3005 18.6095 75.5042 17.0928 72.5334 16.0003L73.7061 11.2535L77.2766 12.1254C77.3876 12.1524 77.5014 12.1658 77.6157 12.1655C77.9306 12.1667 78.2367 12.0619 78.4844 11.8678C78.7322 11.6738 78.907 11.402 78.9806 11.0965L80.419 5.28246C80.4633 5.1032 80.4718 4.91695 80.4439 4.73442C80.416 4.55188 80.3523 4.37664 80.2565 4.21871C80.1607 4.05968 80.034 3.9213 79.884 3.81171C79.7339 3.70212 79.5635 3.6235 79.3826 3.58044L64.9746 0.0351437C64.7951 -0.0103694 64.6083 -0.0198261 64.4251 0.00729971C64.2419 0.0344256 64.0659 0.0975968 63.9073 0.193161C63.7488 0.288724 63.6109 0.414766 63.5016 0.563967C63.3923 0.713168 63.3137 0.882554 63.2706 1.06229L61.8322 6.87811C61.7436 7.2402 61.8021 7.62256 61.9948 7.94186C62.0907 8.10056 62.2174 8.23859 62.3675 8.34788C62.5175 8.45717 62.6879 8.53553 62.8686 8.57838L66.4392 9.45031L65.2647 14.1989C61.0711 13.6501 56.8107 13.9154 52.718 14.9801L50.6522 9.57412C50.5861 9.40165 50.4867 9.24386 50.3595 9.10976C50.2323 8.97565 50.0799 8.86788 49.9109 8.79257C49.742 8.71727 49.5598 8.67591 49.3748 8.67087C49.1898 8.66584 49.0057 8.69722 48.8328 8.76322L44.142 10.5507C43.969 10.6161 43.8106 10.7151 43.6762 10.8421C43.5418 10.969 43.434 11.1213 43.359 11.2901C43.2071 11.6301 43.1965 12.0164 43.3293 12.3643L45.4266 17.8226C43.9949 18.5872 42.6211 19.4551 41.316 20.4192C38.7468 22.3168 36.4668 24.5759 34.5472 27.1262C34.3232 27.4243 34.227 27.799 34.2798 28.1678C34.3325 28.5367 34.5299 28.8695 34.8286 29.0932C35.1274 29.3167 35.5028 29.4127 35.8725 29.3601C36.2422 29.3074 36.5757 29.1104 36.7999 28.8125C39.6585 25.0081 43.3764 21.9305 47.6514 19.8298L47.6951 19.8141C47.7868 19.7791 47.8747 19.7347 47.9572 19.6816C49.313 19.0346 50.715 18.489 52.1517 18.0493C52.2267 18.0335 52.3003 18.0119 52.3719 17.9848H52.3929C57.5617 16.4521 63.0471 16.3257 68.2812 17.6186C84.4929 21.6086 94.4285 38.0219 90.4298 54.1875C86.4311 70.3532 69.9905 80.2775 53.7806 76.2876C50.3831 75.4543 47.1566 74.0381 44.2451 72.1023C43.9343 71.896 43.5541 71.8213 43.188 71.8945C42.822 71.9677 42.5001 72.183 42.293 72.4929C42.1903 72.6466 42.119 72.8189 42.0831 73C42.0473 73.1812 42.0475 73.3676 42.0839 73.5487C42.1202 73.7297 42.192 73.9019 42.295 74.0552C42.3981 74.2086 42.5304 74.3402 42.6845 74.4426C45.8673 76.5552 49.3934 78.1005 53.106 79.0098C55.7041 79.6525 58.3707 79.9781 61.0475 79.9793C62.7853 79.9795 64.5205 79.8419 66.2364 79.5678C70.4526 78.8975 74.4981 77.4169 78.1487 75.2081C81.8051 73.0101 84.999 70.1247 87.5531 66.712C90.204 63.1761 92.1127 59.1428 93.1649 54.8537C94.2273 50.5741 94.4151 46.1248 93.7172 41.7712ZM65.6737 3.10612L77.3465 5.97826L76.5828 9.0649L68.8719 7.16757L68.4805 7.06993L64.9099 6.19799L65.6737 3.10612ZM47.966 16.6194L46.463 12.6939L48.5235 11.9092L50.0195 15.8172L49.6595 15.9462C49.0886 16.1555 48.5241 16.3799 47.966 16.6194ZM69.8489 15.1231L68.0505 14.6802L69.1725 10.1356L70.9709 10.5786L69.8489 15.1231ZM88.5912 21.769L89.9125 23.267L86.6863 26.1043C86.2645 25.5881 85.8281 25.0847 85.3772 24.5941L88.5912 21.769Z" fill="#A03137"/>
<path d="M52.3073 39.0077C52.0429 38.7445 51.6846 38.5966 51.3111 38.5966C50.9376 38.5966 50.5793 38.7445 50.3149 39.0077C50.1841 39.1381 50.0804 39.2929 50.0096 39.4633C49.9388 39.6337 49.9023 39.8164 49.9023 40.0009C49.9023 40.1853 49.9388 40.368 50.0096 40.5384C50.0804 40.7088 50.1841 40.8636 50.3149 40.994L60.0304 50.7492L60.0443 50.7631L60.0601 50.7788L60.0706 50.7893L60.0985 50.812C60.1058 50.8204 60.114 50.828 60.123 50.8346L60.1527 50.8591L60.1789 50.8782C60.188 50.8867 60.198 50.8943 60.2086 50.9009L60.2348 50.9201L60.2645 50.9393L60.2925 50.9567L60.324 50.9759L60.3537 50.9916L60.3834 51.0073L60.4149 51.023L60.4446 51.0369L60.4777 51.0526L60.5057 51.0631L60.5407 51.077L60.5686 51.0875L60.6071 51.0997H60.6333L60.6718 51.1119H60.698L60.7399 51.1224H60.7626L60.8063 51.1311H60.829H60.8745H60.8955H60.9462H61.1209H61.1734H61.1943H61.2415H61.2642H61.3097H61.3341L61.3778 51.1206H61.4023L61.4442 51.1084H61.4705L61.5089 51.0945L61.5369 51.084L61.5736 51.0701L61.6033 51.0579L61.6365 51.0422L61.6679 51.0265L61.6994 51.0108L61.7309 50.9933L61.7606 50.9759L61.792 50.9567L61.82 50.9393L61.8515 50.9166L61.8777 50.8974L61.9091 50.8747C61.9181 50.8681 61.9263 50.8605 61.9336 50.8521L61.9633 50.8277L61.9895 50.805L62.0175 50.7788L62.028 50.7684L62.0437 50.7527L62.0577 50.7387L80.0852 31.7654C80.3421 31.495 80.4808 31.1339 80.471 30.7615C80.4612 30.389 80.3035 30.0357 80.0328 29.7792C79.7615 29.5231 79.3995 29.3849 79.0262 29.3951C78.6529 29.4052 78.299 29.5628 78.0421 29.8332L61.0126 47.7532L52.3073 39.0077Z" fill="#003356"/>
<path d="M16.8882 34.1439C16.8882 33.7711 16.7398 33.4136 16.4756 33.15C16.2114 32.8864 15.8531 32.7383 15.4795 32.7383H6.22897C5.85537 32.7383 5.49709 32.8864 5.23292 33.15C4.96874 33.4136 4.82031 33.7711 4.82031 34.1439C4.82031 34.5166 4.96874 34.8741 5.23292 35.1377C5.49709 35.4013 5.85537 35.5494 6.22897 35.5494H15.4795C15.8531 35.5494 16.2114 35.4013 16.4756 35.1377C16.7398 34.8741 16.8882 34.5166 16.8882 34.1439Z" fill="#A03137"/>
<path d="M30.2503 34.1439C30.2503 33.7711 30.1019 33.4136 29.8377 33.15C29.5735 32.8864 29.2153 32.7383 28.8417 32.7383H27.5571C27.1835 32.7383 26.8252 32.8864 26.561 33.15C26.2969 33.4136 26.1484 33.7711 26.1484 34.1439C26.1484 34.5166 26.2969 34.8741 26.561 35.1377C26.8252 35.4013 27.1835 35.5494 27.5571 35.5494H28.8417C29.2153 35.5494 29.5735 35.4013 29.8377 35.1377C30.1019 34.8741 30.2503 34.5166 30.2503 34.1439Z" fill="#A03137"/>
<path d="M18.9483 49.375H9.69772C9.32412 49.375 8.9658 49.5231 8.70162 49.7867C8.43745 50.0503 8.28906 50.4078 8.28906 50.7806C8.28906 51.1533 8.43745 51.5108 8.70162 51.7744C8.9658 52.038 9.32412 52.1861 9.69772 52.1861H18.9483C19.3219 52.1861 19.6802 52.038 19.9443 51.7744C20.2085 51.5108 20.3569 51.1533 20.3569 50.7806C20.3569 50.4078 20.2085 50.0503 19.9443 49.7867C19.6802 49.5231 19.3219 49.375 18.9483 49.375Z" fill="#A03137"/>
<path d="M3.00964 49.375H1.72506C1.35147 49.375 0.993182 49.5231 0.72901 49.7867C0.464838 50.0503 0.316406 50.4078 0.316406 50.7806C0.316406 51.1533 0.464838 51.5108 0.72901 51.7744C0.993182 52.038 1.35147 52.1861 1.72506 52.1861H3.00964C3.38323 52.1861 3.74152 52.038 4.00569 51.7744C4.26986 51.5108 4.41829 51.1533 4.41829 50.7806C4.41829 50.4078 4.26986 50.0503 4.00569 49.7867C3.74152 49.5231 3.38323 49.375 3.00964 49.375Z" fill="#A03137"/>
<path d="M17.2788 66.8398H13.6821C13.3102 66.8394 12.9532 66.9859 12.6892 67.2473C12.4252 67.5087 12.2757 67.8638 12.2734 68.2349C12.2734 68.6077 12.4218 68.9652 12.686 69.2288C12.9502 69.4924 13.3085 69.6405 13.6821 69.6405H17.2788C17.6524 69.6405 18.0107 69.4924 18.2749 69.2288C18.539 68.9652 18.6875 68.6077 18.6875 68.2349C18.6852 67.8638 18.5357 67.5087 18.2717 67.2473C18.0077 66.9859 17.6508 66.8394 17.2788 66.8398Z" fill="#A03137"/>
<path d="M35.6684 66.8398H26.5297C26.1578 66.8394 25.8008 66.9859 25.5369 67.2473C25.2729 67.5087 25.1234 67.8638 25.1211 68.2349C25.1211 68.6077 25.2695 68.9652 25.5337 69.2288C25.7978 69.4924 26.1561 69.6405 26.5297 69.6405H35.6684C36.042 69.6405 36.4003 69.4924 36.6645 69.2288C36.9287 68.9652 37.0771 68.6077 37.0771 68.2349C37.0748 67.8638 36.9253 67.5087 36.6613 67.2473C36.3973 66.9859 36.0404 66.8394 35.6684 66.8398Z" fill="#A03137"/>
<path d="M26.5297 20.3658H31.1542C31.5278 20.3658 31.886 20.2177 32.1502 19.9541C32.4144 19.6905 32.5628 19.333 32.5628 18.9602C32.5628 18.5875 32.4144 18.23 32.1502 17.9664C31.886 17.7028 31.5278 17.5547 31.1542 17.5547H26.5297C26.1561 17.5547 25.7978 17.7028 25.5337 17.9664C25.2695 18.23 25.1211 18.5875 25.1211 18.9602C25.1211 19.333 25.2695 19.6905 25.5337 19.9541C25.7978 20.2177 26.1561 20.3658 26.5297 20.3658Z" fill="#A03137"/>
<path d="M15.9946 20.3658H17.2791C17.6527 20.3658 18.011 20.2177 18.2752 19.9541C18.5393 19.6905 18.6878 19.333 18.6878 18.9602C18.6878 18.5875 18.5393 18.23 18.2752 17.9664C18.011 17.7028 17.6527 17.5547 17.2791 17.5547H15.9946C15.621 17.5547 15.2627 17.7028 14.9985 17.9664C14.7343 18.23 14.5859 18.5875 14.5859 18.9602C14.5859 19.333 14.7343 19.6905 14.9985 19.9541C15.2627 20.2177 15.621 20.3658 15.9946 20.3658Z" fill="#A03137"/>
</g>
<defs>
<clipPath id="clip0_846_35282">
<rect width="93.813" height="80" fill="white" transform="translate(0.316406)"/>
</clipPath>
</defs>
</svg>
