<?xml version="1.0" encoding="utf-8"?>
<svg version="1.1" xmlns:xlink="http://www.w3.org/1999/xlink" width="20px" height="20px" xmlns="http://www.w3.org/2000/svg">
  <g transform="matrix(1 0 0 1 -842 -539 )">
    <path d="M 7.05859375 7.94140625  C 6.8125 7.69921875  6.8125 7.30078125  7.05859375 7.05859375  C 7.30078125 6.8125  7.69921875 6.8125  7.94140625 7.05859375  L 10 9.1171875  L 12.05859375 7.05859375  C 12.30078125 6.8125  12.69921875 6.8125  12.94140625 7.05859375  C 13.1875 7.30078125  13.1875 7.69921875  12.94140625 7.94140625  L 10.8828125 10  L 12.94140625 12.05859375  C 13.1875 12.30078125  13.1875 12.69921875  12.94140625 12.94140625  C 12.69921875 13.1875  12.30078125 13.1875  12.05859375 12.94140625  L 10 10.8828125  L 7.94140625 12.94140625  C 7.69921875 13.1875  7.30078125 13.1875  7.05859375 12.94140625  C 6.8125 12.69921875  6.8125 12.30078125  7.05859375 12.05859375  L 9.1171875 10  L 7.05859375 7.94140625  Z M 10 0  C 15.5234375 0  20 4.4765625  20 10  C 20 15.5234375  15.5234375 20  10 20  C 4.4765625 20  0 15.5234375  0 10  C 0 4.4765625  4.4765625 0  10 0  Z M 18.75 10  C 18.75 5.16796875  14.83203125 1.25  10 1.25  C 5.16796875 1.25  1.25 5.16796875  1.25 10  C 1.25 14.83203125  5.16796875 18.75  10 18.75  C 14.83203125 18.75  18.75 14.83203125  18.75 10  Z " fill-rule="nonzero" fill="#b5b5b5" stroke="none" transform="matrix(1 0 0 1 842 539 )" />
  </g>
</svg>