<?xml version="1.0" encoding="utf-8"?>
<svg version="1.1" xmlns:xlink="http://www.w3.org/1999/xlink" width="20px" height="20px" xmlns="http://www.w3.org/2000/svg">
  <g>
    <path d="M 10 20  C 4.4765625 20  0 15.5234375  0 10  C 0 4.4765625  4.4765625 0  10 0  C 15.5234375 0  20 4.4765625  20 10  C 20 15.5234375  15.5234375 20  10 20  Z M 6.8359375 8.12890625  L 8.67578125 9.96484375  L 6.8359375 11.8359375  C 6.47265625 12.203125  6.47265625 12.796875  6.8359375 13.12890625  C 7.203125 13.52734375  7.796875 13.52734375  8.12890625 13.12890625  L 9.96484375 11.32421875  L 11.8359375 13.12890625  C 12.203125 13.52734375  12.796875 13.52734375  13.12890625 13.12890625  C 13.52734375 12.796875  13.52734375 12.203125  13.12890625 11.8359375  L 11.32421875 9.96484375  L 13.12890625 8.12890625  C 13.52734375 7.796875  13.52734375 7.203125  13.12890625 6.8359375  C 12.796875 6.47265625  12.203125 6.47265625  11.8359375 6.8359375  L 9.96484375 8.67578125  L 8.12890625 6.8359375  C 7.796875 6.47265625  7.203125 6.47265625  6.8359375 6.8359375  C 6.47265625 7.203125  6.47265625 7.796875  6.8359375 8.12890625  Z " fill-rule="nonzero" fill="#ffffff" stroke="none" />
  </g>
</svg>