<svg width="57" height="62" viewBox="0 0 57 62" fill="none" xmlns="http://www.w3.org/2000/svg">
<g clip-path="url(#clip0_3197_53797)">
<path d="M14.5595 13.357C15.7719 13.3511 16.9553 12.9882 17.9604 12.3139C18.9656 11.6397 19.7474 10.6843 20.2073 9.56849C20.6671 8.45265 20.7844 7.22631 20.5443 6.04423C20.3042 4.86215 19.7174 3.77732 18.8581 2.92664C17.9988 2.07596 16.9054 1.49756 15.7159 1.26443C14.5265 1.0313 13.2942 1.1539 12.1748 1.61674C11.0553 2.07959 10.0987 2.86194 9.42576 3.86507C8.75283 4.86819 8.39369 6.04713 8.39368 7.2531C8.39367 8.05717 8.55336 8.85332 8.86359 9.59581C9.17382 10.3383 9.62847 11.0125 10.2014 11.5797C10.7744 12.1469 11.4543 12.5959 12.2022 12.9009C12.9501 13.2059 13.7512 13.3609 14.5595 13.357V13.357Z" stroke="white" stroke-width="1.5" stroke-linecap="round" stroke-linejoin="round"/>
<path d="M22.3934 42.0166V57.18C22.3934 58.9653 21.2392 60.4097 19.4817 60.4097C19.0596 60.4059 18.6424 60.3192 18.254 60.1547C17.8656 59.9902 17.5136 59.7511 17.2183 59.4511C16.9229 59.1511 16.6899 58.7961 16.5327 58.4064C16.3755 58.0166 16.2971 57.5999 16.302 57.18V42.7648C16.302 42.3051 16.1184 41.8642 15.7916 41.5391C15.4648 41.2141 15.0216 41.0314 14.5595 41.0314C14.0973 41.0314 13.6541 41.2141 13.3273 41.5391C13.0005 41.8642 12.8169 42.3051 12.8169 42.7648V57.18C12.8209 57.6003 12.7415 58.0172 12.5835 58.4069C12.4254 58.7967 12.1918 59.1516 11.8958 59.4515C11.5998 59.7515 11.2474 59.9904 10.8586 60.1548C10.4698 60.3192 10.0522 60.4059 9.62974 60.4097C7.87977 60.4097 6.72552 58.9282 6.72552 57.18V39.4981V24.468" stroke="white" stroke-width="1.5" stroke-linecap="round" stroke-linejoin="round"/>
<path d="M42.4404 13.357C41.228 13.3511 40.0446 12.9882 39.0395 12.3139C38.0343 11.6397 37.2525 10.6843 36.7926 9.56849C36.3328 8.45265 36.2155 7.22631 36.4556 6.04423C36.6957 4.86215 37.2825 3.77732 38.1418 2.92664C39.0011 2.07596 40.0945 1.49756 41.284 1.26443C42.4734 1.0313 43.7057 1.1539 44.8251 1.61674C45.9446 2.07959 46.9012 2.86194 47.5741 3.86507C48.2471 4.86819 48.6062 6.04713 48.6062 7.2531C48.6062 8.05717 48.4465 8.85332 48.1363 9.59581C47.8261 10.3383 47.3714 11.0125 46.7985 11.5797C46.2255 12.1469 45.5456 12.5959 44.7977 12.9009C44.0498 13.2059 43.2487 13.3609 42.4404 13.357Z" stroke="white" stroke-width="1.5" stroke-linecap="round" stroke-linejoin="round"/>
<path d="M34.6061 42.0166V57.18C34.6061 58.9653 35.7603 60.4097 37.5177 60.4097C37.9399 60.4059 38.3571 60.3192 38.7455 60.1547C39.1339 59.9902 39.4858 59.7511 39.7812 59.4511C40.0766 59.1511 40.3095 58.7961 40.4668 58.4064C40.624 58.0166 40.7024 57.5999 40.6975 57.18V42.7648C40.6975 42.3051 40.8811 41.8642 41.2079 41.5391C41.5347 41.2141 41.9779 41.0314 42.44 41.0314C42.9022 41.0314 43.3454 41.2141 43.6722 41.5391C43.999 41.8642 44.1825 42.3051 44.1825 42.7648V57.18C44.1786 57.6003 44.2579 58.0172 44.416 58.4069C44.574 58.7967 44.8077 59.1516 45.1037 59.4515C45.3996 59.7515 45.7521 59.9904 46.1409 60.1548C46.5297 60.3192 46.9473 60.4059 47.3697 60.4097C49.1197 60.4097 50.274 58.9282 50.274 57.18V39.4981V24.468" stroke="white" stroke-width="1.5" stroke-linecap="round" stroke-linejoin="round"/>
<path d="M15.2673 17.3057H7.35149C6.52879 17.3047 5.71397 17.4652 4.9537 17.7779C4.19344 18.0906 3.50266 18.5495 2.92092 19.1282C2.33918 19.7068 1.87791 20.394 1.56353 21.1503C1.24915 21.9065 1.08783 22.7171 1.08881 23.5355V37.2914C1.08881 38.9359 2.15369 40.2545 3.77707 40.2545C4.56707 40.2545 5.3247 39.9423 5.88332 39.3866C6.44193 38.8309 6.75575 38.0773 6.75575 37.2914" stroke="white" stroke-width="1.5" stroke-linecap="round" stroke-linejoin="round"/>
<path d="M50.274 37.2914C50.274 38.0773 50.5879 38.8309 51.1465 39.3866C51.7051 39.9423 52.4627 40.2545 53.2527 40.2545C54.8761 40.2545 55.941 38.9137 55.941 37.2914V23.5355C55.942 22.7171 55.7806 21.9065 55.4663 21.1503C55.1519 20.394 54.6906 19.7068 54.1089 19.1282C53.5271 18.5495 52.8363 18.0906 52.0761 17.7779C51.3158 17.4652 50.501 17.3047 49.6783 17.3057H41.8146" stroke="white" stroke-width="1.5" stroke-linecap="round" stroke-linejoin="round"/>
<path d="M28.4996 44.5129V60.4096" stroke="white" stroke-width="1.5" stroke-linecap="round" stroke-linejoin="round" stroke-dasharray="0.6 6"/>
<path d="M41.4349 29.1497V25.4015C41.4349 25.1264 41.325 24.8626 41.1295 24.6681C40.934 24.4737 40.6688 24.3644 40.3923 24.3644H38.687C38.468 23.5924 38.1633 22.8471 37.7785 22.1421L38.9774 20.9495C39.0756 20.8524 39.1535 20.737 39.2067 20.6099C39.2598 20.4827 39.2872 20.3464 39.2872 20.2087C39.2872 20.071 39.2598 19.9347 39.2067 19.8076C39.1535 19.6805 39.0756 19.565 38.9774 19.468L36.319 16.8531C36.2214 16.7554 36.1054 16.6779 35.9776 16.6251C35.8498 16.5722 35.7127 16.5449 35.5743 16.5449C35.4359 16.5449 35.2988 16.5722 35.171 16.6251C35.0432 16.6779 34.9272 16.7554 34.8296 16.8531L33.6382 18.0383C32.9306 17.6476 32.1813 17.337 31.4041 17.1123V15.4456C31.4041 15.1706 31.2943 14.9068 31.0988 14.7123C30.9033 14.5178 30.6381 14.4086 30.3616 14.4086H26.5936C26.4567 14.4086 26.3211 14.4354 26.1946 14.4875C26.0681 14.5396 25.9532 14.616 25.8564 14.7123C25.7596 14.8086 25.6828 14.9229 25.6304 15.0488C25.578 15.1746 25.551 15.3094 25.551 15.4456V17.0975C24.7745 17.3172 24.0251 17.6228 23.317 18.0087L22.1553 16.8531C22.0578 16.7554 21.9417 16.6779 21.8139 16.6251C21.6861 16.5722 21.5491 16.5449 21.4107 16.5449C21.2723 16.5449 21.1352 16.5722 21.0074 16.6251C20.8796 16.6779 20.7636 16.7554 20.666 16.8531L18.0075 19.4976C17.9094 19.5947 17.8315 19.7101 17.7783 19.8372C17.7251 19.9643 17.6978 20.1007 17.6978 20.2384C17.6978 20.376 17.7251 20.5124 17.7783 20.6395C17.8315 20.7666 17.9094 20.882 18.0075 20.9791L19.1618 22.1273C18.7659 22.8306 18.4511 23.576 18.2235 24.3496H16.5852C16.3087 24.3496 16.0435 24.4588 15.848 24.6533C15.6525 24.8478 15.5427 25.1116 15.5427 25.3866V29.1497C15.5427 29.4248 15.6525 29.6885 15.848 29.883C16.0435 30.0775 16.3087 30.1868 16.5852 30.1868H18.216C18.4437 30.9603 18.7584 31.7058 19.1543 32.4091L18.0001 33.5572C17.9019 33.6543 17.824 33.7697 17.7708 33.8969C17.7177 34.024 17.6903 34.1603 17.6903 34.298C17.6903 34.4357 17.7177 34.572 17.7708 34.6991C17.824 34.8263 17.9019 34.9417 18.0001 35.0388L20.6586 37.6833C20.7561 37.7809 20.8722 37.8584 21 37.9113C21.1278 37.9642 21.2648 37.9914 21.4032 37.9914C21.5416 37.9914 21.6787 37.9642 21.8065 37.9113C21.9343 37.8584 22.0503 37.7809 22.1479 37.6833L23.3096 36.5277C24.0177 36.9135 24.767 37.2191 25.5436 37.4388V39.0907C25.5436 39.3658 25.6534 39.6296 25.8489 39.824C26.0445 40.0185 26.3096 40.1278 26.5861 40.1278H30.3542C30.6307 40.1278 30.8958 40.0185 31.0913 39.824C31.2869 39.6296 31.3967 39.3658 31.3967 39.0907V37.4462C32.1738 37.2216 32.9232 36.911 33.6307 36.5203L34.8222 37.7055C34.9198 37.8031 35.0358 37.8806 35.1636 37.9335C35.2914 37.9864 35.4284 38.0136 35.5669 38.0136C35.7053 38.0136 35.8423 37.9864 35.9701 37.9335C36.0979 37.8806 36.2139 37.8031 36.3115 37.7055L38.97 35.061C39.0682 34.9639 39.1461 34.8485 39.1992 34.7214C39.2524 34.5942 39.2798 34.4579 39.2798 34.3202C39.2798 34.1825 39.2524 34.0462 39.1992 33.9191C39.1461 33.7919 39.0682 33.6765 38.97 33.5795L37.7711 32.3868C38.1558 31.6819 38.4605 30.9365 38.6796 30.1646H40.4147C40.6834 30.1589 40.9396 30.0501 41.1297 29.861C41.3198 29.6719 41.4292 29.4171 41.4349 29.1497V29.1497Z" stroke="white" stroke-width="1.25" stroke-linecap="round" stroke-linejoin="round"/>
<path d="M33.7502 27.2741C33.7502 26.2486 33.4444 25.246 32.8717 24.3933C32.2989 23.5406 31.4848 22.876 30.5323 22.4835C29.5798 22.0911 28.5317 21.9884 27.5205 22.1884C26.5094 22.3885 25.5805 22.8824 24.8515 23.6076C24.1225 24.3327 23.6261 25.2567 23.4249 26.2625C23.2238 27.2684 23.327 28.311 23.7216 29.2585C24.1161 30.206 24.7842 31.0158 25.6415 31.5856C26.4987 32.1553 27.5065 32.4595 28.5375 32.4595C29.222 32.4595 29.8998 32.3253 30.5323 32.0648C31.1647 31.8042 31.7394 31.4222 32.2234 30.9407C32.7074 30.4592 33.0914 29.8876 33.3534 29.2585C33.6153 28.6294 33.7502 27.9551 33.7502 27.2741V27.2741Z" stroke="#FDB913" stroke-width="1.25" stroke-linecap="round" stroke-linejoin="round"/>
</g>
<defs>
<clipPath id="clip0_3197_53797">
<rect width="56.6843" height="61.1128" fill="white" transform="translate(0.157715 0.222656)"/>
</clipPath>
</defs>
</svg>
