<svg width="16" height="16" viewBox="0 0 16 16" fill="none" xmlns="http://www.w3.org/2000/svg">
<g clip-path="url(#clip0_4347_18444)">
<path d="M4.66637 7.99975C4.76401 7.99952 4.86044 7.97814 4.94903 7.93708C5.06384 7.88333 5.16095 7.79796 5.22896 7.69098C5.29697 7.58401 5.33308 7.45985 5.33303 7.33308V5.33308H13.9997C14.1765 5.33308 14.3461 5.26285 14.4711 5.13782C14.5961 5.0128 14.6664 4.84323 14.6664 4.66642V3.33308C14.6664 3.15627 14.5961 2.9867 14.4711 2.86168C14.3461 2.73665 14.1765 2.66642 13.9997 2.66642H5.33303V0.666417C5.33299 0.539741 5.29685 0.4157 5.22885 0.30882C5.16086 0.20194 5.06382 0.116644 4.9491 0.0629217C4.83438 0.00919907 4.70672 -0.0107269 4.58109 0.00547714C4.45545 0.0216812 4.33704 0.0733444 4.2397 0.154417L0.2397 3.48775C0.164673 3.55032 0.104313 3.62861 0.0628915 3.71708C0.0214703 3.80556 0 3.90206 0 3.99975C0 4.09744 0.0214703 4.19394 0.0628915 4.28242C0.104313 4.37089 0.164673 4.44918 0.2397 4.51175L4.2397 7.84508C4.35946 7.94495 4.51043 7.99968 4.66637 7.99975Z" fill="#003356"/>
<path d="M11.7587 8.15442C11.6614 8.07334 11.5429 8.02168 11.4173 8.00548C11.2917 7.98927 11.164 8.0092 11.0493 8.06292C10.9346 8.11664 10.8375 8.20194 10.7695 8.30882C10.7015 8.4157 10.6654 8.53974 10.6654 8.66642V10.6664H1.9987C1.82189 10.6664 1.65232 10.7367 1.52729 10.8617C1.40227 10.9867 1.33203 11.1563 1.33203 11.3331V12.6664C1.33203 12.8432 1.40227 13.0128 1.52729 13.1378C1.65232 13.2628 1.82189 13.3331 1.9987 13.3331H10.6654V15.3331C10.6653 15.4599 10.7014 15.584 10.7694 15.691C10.8375 15.798 10.9346 15.8833 11.0494 15.9371C11.138 15.9781 11.2344 15.9995 11.332 15.9998C11.488 15.9997 11.6389 15.945 11.7587 15.8451L15.7587 12.5118C15.8337 12.4492 15.8941 12.3709 15.9355 12.2824C15.9769 12.1939 15.9984 12.0974 15.9984 11.9998C15.9984 11.9021 15.9769 11.8056 15.9355 11.7171C15.8941 11.6286 15.8337 11.5503 15.7587 11.4878L11.7587 8.15442Z" fill="#003356"/>
</g>
<defs>
<clipPath id="clip0_4347_18444">
<rect width="16" height="16" fill="white"/>
</clipPath>
</defs>
</svg>
