<?xml version="1.0" encoding="UTF-8"?><svg id="Layer_1" xmlns="http://www.w3.org/2000/svg" width="119.04" height="116.4" viewBox="0 0 119.04 116.4"><defs><style>.cls-1{fill:#f4eae6;}.cls-2{fill:#bc3019;}.cls-3{fill:#da4727;}</style></defs><path class="cls-2" d="m84.93,108.8c-27.08,15.64-61.7,6.36-77.34-20.72C-8.04,61,1.24,26.38,28.32,10.74c27.08-15.64,61.7-6.36,77.34,20.72,15.64,27.08,6.36,61.7-20.72,77.34Z"/><circle class="cls-1" cx="56.62" cy="59.77" r="43.56"/><path class="cls-3" d="m54.87,44.16c0,1.1.38,2.01,1.15,2.72.76.71,2,1.45,3.7,2.2v-8.83c-3.23.48-4.85,1.78-4.85,3.91Z"/><path class="cls-3" d="m62.43,0C31.16,0,5.81,25.35,5.81,56.62c0,31.27,25.35,56.62,56.62,56.62,31.27,0,56.62-25.35,56.62-56.62C119.04,25.35,93.69,0,62.43,0Zm14.54,78c-2.88,2.42-6.91,3.86-12.1,4.34v7.7h-5.15v-7.55c-6.11-.12-11.47-1.2-16.08-3.23v-9.92c2.18,1.08,4.8,2.03,7.87,2.86,3.07.83,5.81,1.31,8.21,1.47v-11.65s-2.52-.98-2.52-.98c-4.96-1.95-8.47-4.08-10.54-6.37-2.07-2.29-3.1-5.13-3.1-8.51,0-3.63,1.42-6.62,4.26-8.96,2.84-2.34,6.81-3.76,11.89-4.26v-5.75h5.15v5.6c5.74.25,10.92,1.4,15.56,3.46l-3.53,8.79c-3.91-1.6-7.92-2.58-12.02-2.93v11.08c4.88,1.88,8.36,3.51,10.43,4.88,2.07,1.38,3.58,2.89,4.55,4.55.96,1.65,1.45,3.58,1.45,5.79,0,3.98-1.44,7.18-4.32,9.6Z"/><path class="cls-3" d="m68.7,64.3c-.85-.73-2.13-1.48-3.83-2.25v9.36c3.41-.58,5.11-2.05,5.11-4.43,0-1.05-.43-1.94-1.28-2.67Z"/></svg>