<svg width="17" height="16" viewBox="0 0 17 16" fill="none" xmlns="http://www.w3.org/2000/svg">
<path d="M1.67591 16L15.3294 16C15.9146 16 16.3047 15.6 16.3047 15L16.3047 1C16.3047 0.4 15.9146 -3.41037e-08 15.3294 -8.52593e-08L1.67591 -1.27889e-06C1.09075 -1.33004e-06 0.700654 0.399998 0.700654 0.999999L0.700653 15C0.700653 15.6 1.09075 16 1.67591 16ZM2.65116 2L14.3542 2L14.3542 14L2.65116 14L2.65116 2Z" fill="white"/>
<path d="M7.52606 9L9.47656 9L9.47656 4L7.52606 4L7.52606 9Z" fill="white"/>
<path d="M8.50131 10C7.96269 10 7.52606 10.4477 7.52606 11C7.52606 11.5523 7.96269 12 8.50131 12C9.03993 12 9.47656 11.5523 9.47656 11C9.47656 10.4477 9.03993 10 8.50131 10Z" fill="white"/>
</svg>
