<svg width="59" height="63" viewBox="0 0 59 63" fill="none" xmlns="http://www.w3.org/2000/svg">
<path d="M29.1659 13.2077C30.3782 13.2018 31.5616 12.8389 32.5667 12.1646C33.5719 11.4904 34.3537 10.535 34.8136 9.4192C35.2735 8.30336 35.3907 7.07702 35.1506 5.89494C34.9105 4.71286 34.3238 3.62803 33.4644 2.77735C32.6051 1.92667 31.5117 1.34827 30.3223 1.11514C29.1328 0.88201 27.9006 1.0046 26.7811 1.46745C25.6616 1.9303 24.705 2.71265 24.0321 3.71577C23.3592 4.7189 23 5.89784 23 7.1038C23 7.90788 23.1597 8.70402 23.4699 9.44652C23.7801 10.189 24.2348 10.8632 24.8077 11.4304C25.3807 11.9976 26.0606 12.4466 26.8085 12.7516C27.5565 13.0566 28.3576 13.2116 29.1659 13.2077V13.2077Z" stroke="white" stroke-width="1.5" stroke-linecap="round" stroke-linejoin="round"/>
<path d="M41.0194 16C41.8097 15.9961 42.5812 15.7583 43.2364 15.3164C43.8916 14.8746 44.4013 14.2485 44.7011 13.5173C45.0009 12.786 45.0773 11.9824 44.9208 11.2078C44.7643 10.4331 44.3818 9.7222 43.8216 9.16473C43.2614 8.60726 42.5487 8.22823 41.7733 8.07545C40.9979 7.92268 40.1946 8.00302 39.4648 8.30633" stroke="white" stroke-width="1.5" stroke-linecap="square" stroke-linejoin="round"/>
<path d="M17.9806 16C17.1903 15.9961 16.4188 15.7583 15.7636 15.3164C15.1084 14.8746 14.5987 14.2485 14.2989 13.5173C13.9991 12.786 13.9227 11.9824 14.0792 11.2078C14.2357 10.4331 14.6182 9.7222 15.1784 9.16473C15.7386 8.60726 16.4513 8.22823 17.2267 8.07545C18.0021 7.92268 18.8054 8.00302 19.5352 8.30633" stroke="white" stroke-width="1.5" stroke-linecap="square" stroke-linejoin="round"/>
<line x1="46.25" y1="57" x2="46.25" y2="31" stroke="white" stroke-width="1.5"/>
<line y1="-0.75" x2="26" y2="-0.75" transform="matrix(0 -1 -1 0 12 57)" stroke="white" stroke-width="1.5"/>
<path d="M35.875 57V29" stroke="white" stroke-width="1.5"/>
<path d="M23.375 57V29" stroke="white" stroke-width="1.5"/>
<path d="M40.375 57V38" stroke="white" stroke-width="1.5"/>
<path d="M18.625 57V38" stroke="white" stroke-width="1.5"/>
<path d="M30 57V36" stroke="white" stroke-width="1.5"/>
<path d="M41.5 18.5H44C46.7614 18.5 49 20.7386 49 23.5V32.5C49 33.8807 47.8807 35 46.5 35V35" stroke="white" stroke-width="1.5"/>
<path d="M17.5 18.5H15C12.2386 18.5 10 20.7386 10 23.5V32.5C10 33.8807 11.1193 35 12.5 35V35" stroke="white" stroke-width="1.5"/>
<path d="M30 16H34C36.7614 16 39 18.2386 39 21V30.3333C39 31.8061 37.8061 33 36.3333 33V33" stroke="white" stroke-width="1.5"/>
<path d="M30.5 16H25C22.2386 16 20 18.2386 20 21V30.3333C20 31.8061 21.1939 33 22.6667 33V33" stroke="white" stroke-width="1.5"/>
<path d="M50.4261 51.4023C55.31 52.5148 58.3045 54.0158 58.3045 55.6675C58.3045 59.097 45.3932 61.8772 29.4662 61.8772C13.5393 61.8772 0.62793 59.097 0.62793 55.6675C0.62793 54.0969 3.33577 52.6625 7.801 51.5689" stroke="#FDB913" stroke-linecap="round" stroke-dasharray="8 4 2 4"/>
</svg>
