<svg width="80" height="80" viewBox="0 0 80 80" fill="none" xmlns="http://www.w3.org/2000/svg">
<path d="M15.625 28.125V53.125C15.625 59.3388 26.8175 64.375 40.625 64.375C54.4325 64.375 65.625 59.3388 65.625 53.125V28.125" stroke="#A03137" stroke-width="3" stroke-miterlimit="10"/>
<path d="M55.625 68.125L59.6161 73.7125C60.5616 75.0363 59.6154 76.875 57.9886 76.875H53.2614C51.6346 76.875 50.6884 75.0363 51.6339 73.7125L55.625 68.125ZM55.625 68.125V33.125" stroke="#003356" stroke-width="3" stroke-miterlimit="10"/>
<path d="M41.5194 40.1778C40.9564 40.4593 40.2936 40.4593 39.7306 40.1778L9.20271 24.9139C7.72861 24.1768 7.72861 22.0732 9.20271 21.3361L39.7306 6.07221C40.2936 5.79069 40.9564 5.79069 41.5194 6.07221L72.0473 21.3361C73.5214 22.0732 73.5214 24.1768 72.0473 24.9139L41.5194 40.1778Z" stroke="#A03137" stroke-width="3" stroke-miterlimit="10" stroke-linecap="square"/>
</svg>
