<svg width="154" height="232" viewBox="0 0 154 232" fill="none" xmlns="http://www.w3.org/2000/svg">
<g clip-path="url(#clip0_689_15167)">
<rect x="-7.32776" y="134.465" width="14.7683" height="86.3021" rx="7.38416" transform="rotate(-37.1819 -7.32776 134.465)" fill="#FDB913"/>
<rect x="80.2712" y="153.809" width="13.7683" height="99.3465" rx="6.88416" transform="rotate(-38.8609 80.2712 153.809)" stroke="#2AACE2"/>
<rect x="-23.7354" y="112.835" width="14.7683" height="20.1482" rx="7.38416" transform="rotate(-37.1819 -23.7354 112.835)" fill="#FDB913"/>
<rect opacity="0.9" x="-0.0814022" y="0.702406" width="31.0998" height="254.485" rx="15.5499" transform="matrix(-0.783808 0.621004 0.621004 0.783808 -63.3851 0.202406)" stroke="#003082"/>
<rect x="21.5737" y="79.7758" width="13.7683" height="11.7085" rx="5.85423" transform="rotate(-38.8609 21.5737 79.7758)" stroke="#2AACE2"/>
<rect x="38.3081" y="101.697" width="13.7683" height="57.5323" rx="6.88416" transform="rotate(-38.8609 38.3081 101.697)" stroke="#2AACE2"/>
<rect x="-17.6358" y="32.6791" width="13.7683" height="54.1344" rx="6.88416" transform="rotate(-38.8609 -17.6358 32.6791)" stroke="#2AACE2"/>
</g>
<defs>
<clipPath id="clip0_689_15167">
<rect width="154" height="232" fill="white"/>
</clipPath>
</defs>
</svg>
