<svg width="16" height="16" viewBox="0 0 16 16" fill="none" xmlns="http://www.w3.org/2000/svg">
<path fill-rule="evenodd" clip-rule="evenodd" d="M0.427735 2.22584C0.427735 1.89723 0.556205 1.58208 0.784883 1.34972C1.01356 1.11736 1.32372 0.986818 1.64712 0.986818H13.8025C13.9627 0.986552 14.1215 1.01841 14.2696 1.08056C14.4177 1.14272 14.5524 1.23396 14.6657 1.34904C14.7791 1.46413 14.8691 1.60082 14.9304 1.75127C14.9917 1.90172 15.0232 2.06299 15.0232 2.22584V14.577C15.0233 14.7399 14.9919 14.9012 14.9307 15.0517C14.8694 15.2022 14.7796 15.339 14.6662 15.4542C14.5529 15.5694 14.4184 15.6608 14.2703 15.7231C14.1222 15.7854 13.9634 15.8174 13.8031 15.8173H1.64712C1.48693 15.8173 1.32831 15.7853 1.18033 15.723C1.03234 15.6607 0.897887 15.5693 0.784648 15.4542C0.67141 15.3391 0.581605 15.2024 0.520364 15.052C0.459123 14.9016 0.427647 14.7404 0.427735 14.5777V2.22584ZM6.20487 6.64129H8.18122V7.64977C8.4665 7.07003 9.19627 6.54827 10.2929 6.54827C12.3953 6.54827 12.8936 7.70303 12.8936 9.82177V13.7465H10.7659V10.3044C10.7659 9.09777 10.4807 8.41691 9.7562 8.41691C8.75111 8.41691 8.33315 9.15102 8.33315 10.3044V13.7465H6.20487V6.64129ZM2.55601 13.6541H4.68429V6.54827H2.55601V13.6534V13.6541ZM4.98881 4.23066C4.99282 4.41582 4.96039 4.59993 4.89343 4.77219C4.82647 4.94444 4.72632 5.10137 4.59886 5.23376C4.47141 5.36616 4.31921 5.47135 4.1512 5.54317C3.98319 5.61498 3.80275 5.65198 3.62048 5.65198C3.43821 5.65198 3.25778 5.61498 3.08977 5.54317C2.92176 5.47135 2.76956 5.36616 2.64211 5.23376C2.51465 5.10137 2.4145 4.94444 2.34754 4.77219C2.28058 4.59993 2.24815 4.41582 2.25216 4.23066C2.26004 3.86721 2.40766 3.52135 2.66341 3.26714C2.91916 3.01293 3.26271 2.87058 3.62048 2.87058C3.97826 2.87058 4.3218 3.01293 4.57756 3.26714C4.83331 3.52135 4.98093 3.86721 4.98881 4.23066Z" fill="#151515"/>
</svg>
