<svg width="34" height="30" viewBox="0 0 34 30" fill="none" xmlns="http://www.w3.org/2000/svg">
<path fill-rule="evenodd" clip-rule="evenodd" d="M0.202149 2.52943C0.202149 1.8702 0.495065 1.23798 1.01646 0.771842C1.53785 0.305701 2.24502 0.0438266 2.98238 0.0438266H30.697C31.0624 0.043293 31.4243 0.107201 31.7621 0.231892C32.0998 0.356583 32.4068 0.539607 32.6653 0.770487C32.9238 1.00137 33.1289 1.27557 33.2687 1.57739C33.4085 1.87922 33.4804 2.20273 33.4802 2.52943V27.307C33.4806 27.6337 33.4089 27.9574 33.2693 28.2593C33.1297 28.5613 32.9248 28.8357 32.6664 29.0668C32.4081 29.2979 32.1013 29.4812 31.7636 29.6062C31.4259 29.7312 31.064 29.7955 30.6985 29.7953H2.98238C2.61715 29.7953 2.25549 29.7309 1.91808 29.606C1.58067 29.481 1.27411 29.2977 1.01592 29.0668C0.757737 28.8358 0.552978 28.5617 0.413347 28.2599C0.273716 27.9582 0.20195 27.6349 0.202149 27.3083V2.52943ZM13.3742 11.3872H17.8804V13.4103C18.5308 12.2473 20.1947 11.2006 22.6951 11.2006C27.4887 11.2006 28.6246 13.5172 28.6246 17.7676V25.6409H23.7736V18.7359C23.7736 16.3152 23.1232 14.9493 21.4714 14.9493C19.1797 14.9493 18.2268 16.422 18.2268 18.7359V25.6409H13.3742V11.3872ZM5.0547 25.4556H9.90724V11.2006H5.0547V25.4543V25.4556ZM10.6015 6.55128C10.6107 6.92273 10.5368 7.29208 10.3841 7.63764C10.2314 7.9832 10.0031 8.29801 9.71246 8.56361C9.42186 8.8292 9.07484 9.04023 8.69177 9.1843C8.3087 9.32837 7.89731 9.40258 7.48173 9.40258C7.06615 9.40258 6.65475 9.32837 6.27168 9.1843C5.88862 9.04023 5.5416 8.8292 5.25099 8.56361C4.96038 8.29801 4.73204 7.9832 4.57937 7.63764C4.42669 7.29208 4.35276 6.92273 4.36191 6.55128C4.37987 5.82217 4.71645 5.12834 5.29957 4.61837C5.88269 4.10839 6.666 3.82283 7.48173 3.82283C8.29746 3.82283 9.08076 4.10839 9.66388 4.61837C10.247 5.12834 10.5836 5.82217 10.6015 6.55128Z" fill="white"/>
</svg>
