<svg width="60" height="61" viewBox="0 0 60 61" fill="none" xmlns="http://www.w3.org/2000/svg">
<path d="M36.7662 55.9727L20.3331 49.3994L1 55.1994V8.79993L20.3331 3L39.6662 10.7332L58.9993 4.93331V26.1997" stroke="white" stroke-width="1.75" stroke-miterlimit="10" stroke-linecap="round" stroke-linejoin="round"/>
<path d="M47.3998 44.5672C49.5353 44.5672 51.2664 42.8361 51.2664 40.7006C51.2664 38.5651 49.5353 36.834 47.3998 36.834C45.2643 36.834 43.5332 38.5651 43.5332 40.7006C43.5332 42.8361 45.2643 44.5672 47.3998 44.5672Z" stroke="white" stroke-width="1.75" stroke-miterlimit="10" stroke-linecap="round" stroke-linejoin="round"/>
<path d="M59.0005 40.3979C59.0005 47.3694 47.4006 58.0993 47.4006 58.0993C47.4006 58.0993 35.8008 47.3694 35.8008 40.3979C35.8008 33.2485 41.794 29.0996 47.4006 29.0996C53.0072 29.0996 59.0005 33.2485 59.0005 40.3979Z" stroke="white" stroke-width="1.75" stroke-miterlimit="10" stroke-linecap="round" stroke-linejoin="round"/>
<path d="M20.334 3V49.3994" stroke="white" stroke-width="1.75" stroke-miterlimit="10" stroke-linecap="round" stroke-linejoin="round"/>
<path d="M39.666 10.7344V24.2675" stroke="white" stroke-width="1.75" stroke-miterlimit="10" stroke-linecap="round" stroke-linejoin="round"/>
</svg>
