<svg width="70" height="62" viewBox="0 0 70 62" fill="none" xmlns="http://www.w3.org/2000/svg">
<path d="M17.1877 17.2456H14.0068V41.0683H55.9952V17.2456H52.716" stroke="#377D82" stroke-width="2" stroke-miterlimit="10" stroke-linecap="round" stroke-linejoin="round"/>
<path d="M7.40234 41.0682V8.87061H15.0684M62.5982 41.0682V8.87061H54.9321" stroke="#377D82" stroke-width="2" stroke-miterlimit="10" stroke-linecap="round" stroke-linejoin="round"/>
<path d="M47.2661 48.7341V53.3338H22.7346V48.7341H1.26953V60.9999H68.7311V48.7341H47.2661Z" stroke="#377D82" stroke-width="2" stroke-miterlimit="10" stroke-linecap="round" stroke-linejoin="round"/>
<path d="M43.9961 27.9846L43.9961 7.74614" stroke="#377D82" stroke-width="2" stroke-miterlimit="10" stroke-linecap="round" stroke-linejoin="round"/>
<path d="M49.6172 29.1089L38.3736 29.1089" stroke="#377D82" stroke-width="2" stroke-miterlimit="10" stroke-linecap="round" stroke-linejoin="round"/>
<path d="M49.6172 7.74609L38.3736 7.74609" stroke="#377D82" stroke-width="2" stroke-miterlimit="10" stroke-linecap="round" stroke-linejoin="round"/>
<path d="M38.3736 7.74607L43.9954 0.999906L49.6172 7.74607L49.6172 34.7307L38.3736 34.7307L38.3736 7.74607Z" stroke="#377D82" stroke-width="2" stroke-miterlimit="10" stroke-linecap="round" stroke-linejoin="round"/>
<path d="M20.3838 6.62524H26.0056" stroke="#F7B524" stroke-width="2" stroke-miterlimit="10" stroke-linecap="round" stroke-linejoin="round"/>
<path d="M20.3838 12.2471H23.7569" stroke="#F7B524" stroke-width="2" stroke-miterlimit="10" stroke-linecap="round" stroke-linejoin="round"/>
<path d="M20.3838 17.8689H26.0056" stroke="#F7B524" stroke-width="2" stroke-miterlimit="10" stroke-linecap="round" stroke-linejoin="round"/>
<path d="M20.3838 23.4907H23.7569" stroke="#F7B524" stroke-width="2" stroke-miterlimit="10" stroke-linecap="round" stroke-linejoin="round"/>
<path d="M20.3838 29.1123H26.0056" stroke="#F7B524" stroke-width="2" stroke-miterlimit="10" stroke-linecap="round" stroke-linejoin="round"/>
<path d="M32.7517 1.00342H20.3838V34.7342H32.7517V1.00342Z" stroke="#F7B524" stroke-width="2" stroke-miterlimit="10" stroke-linecap="round" stroke-linejoin="round"/>
</svg>
