<?xml version="1.0" encoding="utf-8"?>
<svg version="1.1" xmlns:xlink="http://www.w3.org/1999/xlink" width="24px" height="28px" xmlns="http://www.w3.org/2000/svg">
  <g transform="matrix(1 0 0 1 -296 -838 )">
    <path d="M 11.142857142857142 1.8690217391304345  L 11.094642857142855 0.9565217391304345  C 11.094642857142855 0.47630434782608666  11.528571428571428 0.08695652173913013  11.951785714285716 0.08695652173913013  C 12.471428571428572 0.08695652173913013  12.85714285714286 0.47630434782608666  12.85714285714286 0.9565217391304345  L 12.85714285714286 1.8690217391304345  C 17.191071428571426 2.3054347826086956  20.57142857142857 6.010869565217392  20.57142857142857 10.521739130434781  L 20.57142857142857 12.103260869565217  C 20.57142857142857 14.478260869565219  21.503571428571426 16.755434782608695  23.158928571428568 18.440217391304348  L 23.30357142857143 18.58695652173913  C 23.74821428571429 19.038043478260867  24 19.603260869565215  24 20.288043478260867  C 24 21.6195652173913  22.93928571428571 22.695652173913047  21.62678571428571 22.695652173913047  L 2.3721428571428573 22.695652173913047  C 1.0623214285714284 22.695652173913047  0 21.6195652173913  0 20.288043478260867  C 0 19.603260869565215  0.24996428571428572 19.038043478260867  0.6948214285714285 18.58695652173913  L 0.8421428571428573 18.440217391304348  C 2.498035714285714 16.755434782608695  3.4285714285714284 14.478260869565219  3.4285714285714284 12.103260869565217  L 3.4285714285714284 10.521739130434781  C 3.4285714285714284 6.010869565217392  6.80892857142857 2.3054347826086956  11.142857142857142 1.8690217391304345  Z M 11.951785714285716 3.5652173913043477  C 8.2125 3.5652173913043477  5.094642857142857 6.679347826086956  5.094642857142857 10.521739130434781  L 5.094642857142857 12.103260869565217  C 5.094642857142857 14.940217391304348  4.031785714285714 17.66304347826087  2.0544642857142863 19.668478260869566  L 1.9071428571428575 19.815217391304348  C 1.783392857142857 19.940217391304348  1.6660714285714286 20.114130434782613  1.6660714285714286 20.288043478260867  C 1.6660714285714286 20.657608695652176  2.008928571428571 20.956521739130437  2.3721428571428573 21  L 21.62678571428571 21  C 21.99107142857143 20.956521739130437  22.285714285714285 20.657608695652176  22.285714285714285 20.288043478260867  C 22.285714285714285 20.114130434782613  22.216071428571432 19.940217391304348  22.09285714285714 19.815217391304348  L 21.948214285714286 19.668478260869566  C 19.966071428571432 17.66304347826087  18.85714285714286 14.940217391304348  18.85714285714286 12.103260869565217  L 18.85714285714286 10.521739130434781  C 18.85714285714286 6.679347826086956  15.787500000000001 3.5652173913043477  11.951785714285716 3.5652173913043477  Z M 10.38214285714286 25.01630434782609  C 10.61785714285714 25.690217391304344  11.255357142857143 26.17391304347826  11.951785714285716 26.17391304347826  C 12.744642857142857 26.17391304347826  13.38214285714286 25.690217391304344  13.61785714285714 25.01630434782609  C 13.773214285714289 24.559782608695656  14.26607142857143 24.277173913043477  14.710714285714289 24.483695652173907  C 15.155357142857142 24.646739130434785  15.39107142857143 25.14130434782609  15.235714285714284 25.592391304347828  C 14.764285714285718 26.945652173913043  13.494642857142857 27.91304347826087  11.951785714285716 27.91304347826087  C 10.505357142857143 27.91304347826087  9.235714285714286 26.945652173913043  8.764285714285716 25.592391304347828  C 8.60892857142857 25.14130434782609  8.844642857142857 24.646739130434785  9.289285714285715 24.483695652173907  C 9.73392857142857 24.277173913043477  10.226785714285715 24.559782608695656  10.38214285714286 25.01630434782609  Z " fill-rule="nonzero" fill="#d7a80e" stroke="none" transform="matrix(1 0 0 1 296 838 )" />
  </g>
</svg>