<?xml version="1.0" encoding="UTF-8"?><svg id="Layer_1" xmlns="http://www.w3.org/2000/svg" width="122.02" height="130.56" viewBox="0 0 122.02 130.56"><defs><style>.cls-1{fill:#da4727;}</style></defs><path class="cls-1" d="m108.34,63.56c-2.34-5.07-5.82-9.6-10.17-13.41l3.63-16.21c-6.54-1.97-13.74,1.36-18.2,7.46-3.78-1.49-7.84-2.56-12.06-3.21-1.85,2.51-4.21,4.63-6.96,6.2,2.8.04,5.62.24,8.45.6,1.12.14,1.91,1.17,1.76,2.28-.14,1.12-1.16,1.91-2.28,1.76-5.46-.7-10.87-.76-16.09-.2-5.57.6-10.93,1.9-15.92,3.87-1.05.42-2.23-.1-2.65-1.14-.41-1.05.1-2.23,1.15-2.65,2.58-1.02,5.26-1.86,8-2.54-2.95-.9-5.66-2.4-7.98-4.37-11.59,4.75-20.79,12.84-25.88,22.56-.17-.03-.35-.04-.53-.02-2.28.25-4.39-.32-5.92-1.34-1.54-1.03-2.46-2.45-2.63-4.05-.12-1.12-1.13-1.93-2.24-1.81S-.11,58.47.01,59.59c.31,2.96,2.05,5.43,4.42,7.01,1.93,1.29,4.31,2.02,6.84,2.07-2.1,5.41-2.96,11.21-2.33,17.14,1.28,11.93,8.38,22.08,18.76,28.77l-1.86,13.6,17.47,2.38,1.22-8.94c6.34,1.48,13.18,1.94,20.22,1.18,7.05-.75,13.63-2.66,19.51-5.45l3.09,8.48,16.57-6.03-4.7-12.91c6.17-6.19,10.38-13.71,11.85-21.81l10.93-1.17-2.31-21.59-11.36,1.22Zm-16.45,1.32c-1.64.18-3.11-1.01-3.29-2.65-.18-1.64,1.01-3.11,2.65-3.28,1.64-.18,3.11,1.01,3.28,2.65s-1.01,3.11-2.65,3.28Z"/><path class="cls-1" d="m49.76,17.32c.05.42.23.75.55.99.32.24.82.47,1.51.69l-.36-3.38c-1.22.31-1.78.88-1.69,1.69Z"/><path class="cls-1" d="m50.84.13c-11.96,1.28-20.61,12.01-19.33,23.97s12.01,20.61,23.97,19.33c11.96-1.28,20.61-12.01,19.33-23.97C73.52,7.5,62.79-1.16,50.84.13Zm8.67,28.47c-1,1.04-2.49,1.76-4.45,2.16l.32,2.95-1.97.21-.31-2.89c-2.34.2-4.44.01-6.28-.58l-.41-3.79c.88.32,1.92.58,3.13.77,1.21.19,2.27.26,3.2.22l-.48-4.45-1-.27c-1.98-.54-3.41-1.21-4.29-2-.88-.79-1.4-1.83-1.53-3.13-.15-1.39.27-2.59,1.26-3.6.99-1.01,2.45-1.72,4.37-2.12l-.24-2.2,1.97-.21.23,2.14c2.2-.14,4.23.09,6.09.68l-.99,3.51c-1.56-.45-3.13-.66-4.72-.63l.45,4.24c1.94.52,3.34,1,4.19,1.44.85.44,1.49.96,1.92,1.55.44.59.7,1.31.79,2.15.16,1.52-.26,2.81-1.26,3.85Z"/><path class="cls-1" d="m55.87,24.45c-.36-.24-.87-.48-1.56-.7l.38,3.58c1.28-.36,1.87-.99,1.77-1.9-.04-.4-.24-.72-.6-.97Z"/></svg>