<svg xmlns="http://www.w3.org/2000/svg" fill="none" width="93" height="32" viewBox="0 0 93 32">
<path d="M69.6651 9.60451C71.0396 9.60451 72.1538 8.4394 72.1538 7.00219C72.1538 5.56498 71.0396 4.3999 69.6651 4.3999C68.2906 4.3999 67.1764 5.56498 67.1764 7.00219C67.1764 8.4394 68.2906 9.60451 69.6651 9.60451Z" fill="#1D1D1D"/>
<path fill-rule="evenodd" clip-rule="evenodd" d="M6.45061 23.8095C6.45061 25.5424 5.97257 26.642 4.98462 27.2086H12.5058C10.6255 26.642 10.1474 25.5424 10.1474 23.8095V19.2108H13.2493C18.5396 19.2108 22.2364 17.2447 22.2364 11.913C22.2364 6.84774 18.9857 5.08158 13.2811 5.08158H4.98462C5.97257 5.64807 6.45061 6.74776 6.45061 8.48058V23.8095ZM13.2811 17.2114H10.1474V7.04769H13.2811C16.723 7.04769 18.2527 8.34729 18.2527 12.1462C18.2527 16.0784 16.723 17.2114 13.2811 17.2114Z" fill="#1D1D1D"/>
<path d="M22.8972 27.2086C23.7895 26.742 24.2676 25.609 24.2676 23.8095V14.7455C24.2676 12.946 23.7895 11.813 22.8972 11.3464H27.6776V14.8192H27.7415C28.0153 13.184 29.0888 11.0132 31.3107 11.0132C31.8957 11.0132 32.3328 11.1782 32.7207 11.3246C33.0302 11.4414 33.3083 11.5464 33.6053 11.5464C34.1471 11.5464 34.5932 11.2465 34.9438 10.9466L33.6053 15.7276C32.9811 14.8091 31.6775 14.0437 30.7851 14.0437C28.9686 14.0437 27.6776 15.8452 27.6776 18.2111V23.8095C27.6776 25.5424 28.2512 26.642 29.9084 27.2086H22.8972Z" fill="#1D1D1D"/>
<path fill-rule="evenodd" clip-rule="evenodd" d="M39.6362 27.5418C37.0867 27.5418 35.1746 25.9423 35.1746 23.1431C35.1746 20.2772 37.0867 18.6443 40.6879 17.7779L43.4287 17.0781C44.5122 16.8115 44.9903 16.4116 44.9903 15.4786C44.9903 13.8791 44.1617 12.846 42.1858 12.846C40.0506 12.846 38.3048 14.0437 36.548 16.7116L36.0988 11.0132C36.4493 11.6464 36.9274 11.913 37.5329 11.913C37.9786 11.913 38.5567 11.7693 39.2508 11.5967C40.2937 11.3375 41.5984 11.0132 43.11 11.0132C46.6156 11.0132 48.3684 12.7127 48.3684 16.2117V23.8095C48.3684 25.173 48.8632 26.0611 49.7548 26.0611C50.7514 26.0611 51.2893 25.3397 52.005 24.3797L52.0879 24.2685L52.1513 24.1839C52.2187 24.094 52.2879 24.0024 52.3594 23.9095L55.7694 19.6441L51.3715 13.5125C50.9253 12.8793 50.2561 12.1129 49.1088 11.3464H55.9607C55.0046 11.913 54.8134 12.8793 55.4826 13.8124L58.0322 17.3447L60.263 14.4789C61.251 13.1792 61.1554 12.0462 60.0081 11.3464H65.7445C64.1689 12.4237 63.5728 13.1997 62.614 14.4477C62.5644 14.5123 62.5138 14.5782 62.462 14.6455L59.1157 18.9776L63.5456 25.0425C64.0555 25.7423 64.661 26.4421 65.8083 27.2086H58.8926C59.8487 26.642 59.9762 25.609 59.3707 24.7426L56.853 21.2103L54.7178 23.9762C53.7298 25.3091 53.7617 26.5087 54.909 27.2086H44.9903L44.9863 23.5241H44.8065C43.958 26.4502 41.7761 27.5418 39.6362 27.5418ZM38.5527 22.4432C38.5527 24.3427 39.7637 25.0758 41.1978 25.0758C43.5562 25.0758 44.9903 23.1431 44.9903 20.7771V17.5447C44.8079 18.1805 43.9584 18.4523 43.1612 18.7075L43.0463 18.7443L41.1022 19.3775C39.3813 19.9107 38.5527 20.877 38.5527 22.4432Z" fill="#1D1D1D"/>
<path d="M68.325 23.8095C68.325 25.609 67.847 26.742 66.9546 27.2086H73.1054C72.2131 26.742 71.735 25.609 71.735 23.8095V11.3464H66.9546C67.847 11.813 68.325 12.946 68.325 14.7455V23.8095Z" fill="#1D1D1D"/>
<path d="M80.6296 25.7756C77.7614 25.7756 75.4668 24.0428 74.447 20.7437V27.5418C74.925 26.9086 75.3712 26.642 76.0405 26.642C76.4968 26.642 76.9958 26.7927 77.5856 26.9706C78.4372 27.2277 79.4781 27.5418 80.8527 27.5418C84.3902 27.5418 86.9398 25.4424 86.9398 22.3099C86.9398 19.9773 85.5056 18.3444 82.8286 17.678L79.9604 16.9448C78.2394 16.5116 77.5064 15.9784 77.5064 14.8121C77.5064 13.5125 78.4307 12.746 80.2472 12.746C82.733 12.746 84.8045 14.179 85.7606 16.6449V10.9466C85.3782 11.5797 84.8364 11.7463 84.3265 11.7463C83.9397 11.7463 83.506 11.6318 82.9895 11.4954C82.2292 11.2947 81.2895 11.0465 80.056 11.0465C76.7416 11.0465 74.5426 12.846 74.5426 15.6452C74.5426 18.1112 76.1998 19.5774 78.9406 20.2772L81.7132 20.977C83.0836 21.3436 83.8166 21.9101 83.8166 23.1764C83.8166 24.7093 82.7968 25.7756 80.6296 25.7756Z" fill="#1D1D1D"/>
</svg>