<?xml version="1.0" encoding="utf-8"?>
<svg version="1.1" xmlns:xlink="http://www.w3.org/1999/xlink" width="13px" height="7px" xmlns="http://www.w3.org/2000/svg">
  <g transform="matrix(1 0 0 1 -1883 -640 )">
    <path d="M 12.240025085034013 5.596698863636363  C 12.416879251700681 5.792613636363636  12.430697278911564 6.076704545454546  12.264880952380953 6.261363636363637  C 12.176445578231291 6.360795454545455  12.057610544217688 6.409090909090909  11.938775510204081 6.409090909090909  C 11.83124362244898 6.409090909090909  11.7237393707483 6.369147727272727  11.638647959183672 6.2883522727272725  L 6.19047619047619 1.1193181818181823  L 0.7434098639455784 6.264204545454544  C 0.5637755102040818 6.434659090909091  0.2835459183673471 6.424005681818182  0.11855867346938793 6.238460227272726  C -0.04725765306122432 6.053801136363635  -0.03603741496598623 5.767153409090909  0.14317134353741515 5.596698863636363  L 5.891470663265307 0.14215340909090865  C 6.0615982142857145 -0.01943750000000036  6.321487670068027 -0.01943750000000036  6.491725765306123 0.14215340909090865  L 12.240025085034013 5.596698863636363  Z " fill-rule="nonzero" fill="#2aace2" stroke="none" transform="matrix(1 0 0 1 1883 640 )" />
  </g>
</svg>