<?xml version="1.0" encoding="utf-8"?>
<svg version="1.1" xmlns:xlink="http://www.w3.org/1999/xlink" width="13px" height="7px" xmlns="http://www.w3.org/2000/svg">
  <g transform="matrix(1 0 0 1 -1437 -659 )">
    <path d="M 0.7588694727891144 1.3535852272727278  C 0.5819323979591836 1.2073863636363638  0.5707121598639456 0.9204545454545453  0.7365284863945579 0.7357954545454546  C 0.8233333333333334 0.6392045454545449  0.9421130952380953 0.5653409090909088  1.0612244897959184 0.5653409090909088  C 1.1687563775510204 0.5653409090909088  1.276260629251701 0.6052840909090906  1.3613520408163264 0.6860795454545454  L 6.808418367346938 5.83096590909091  L 12.255484693877548 0.6860795454545454  C 12.435119047619047 0.5156249999999998  12.715348639455781 0.5262784090909087  12.880335884353741 0.7118238636363636  C 13.046152210884353 0.8964829545454543  13.034931972789115 1.1831306818181817  12.855723214285712 1.3535852272727278  L 7.107423894557822 6.808130681818181  C 6.9372963435374135 6.969721590909092  6.6774068877551 6.969721590909092  6.507168792517007 6.808130681818181  L 0.7588694727891144 1.3535852272727278  Z " fill-rule="nonzero" fill="#003082" stroke="none" transform="matrix(1 0 0 1 1437 659 )" />
  </g>
</svg>