<?xml version="1.0" encoding="utf-8"?>
<svg version="1.1" xmlns:xlink="http://www.w3.org/1999/xlink" width="3px" height="13px" xmlns="http://www.w3.org/2000/svg">
  <g transform="matrix(1 0 0 1 -1442 -728 )">
    <path d="M 0.44999999999999996 11.916666666666666  C 0.44999999999999996 11.317447916666666  0.920203125 10.833333333333334  1.5 10.833333333333334  C 2.0797968750000004 10.833333333333334  2.55 11.317447916666666  2.55 11.916666666666666  C 2.55 12.515885416666666  2.0797968750000004 13  1.5 13  C 0.920203125 13  0.44999999999999996 12.515885416666666  0.44999999999999996 11.916666666666666  Z M 0.44999999999999996 6.5  C 0.44999999999999996 5.9007812500000005  0.920203125 5.416666666666667  1.5 5.416666666666667  C 2.0797968750000004 5.416666666666667  2.55 5.9007812500000005  2.55 6.5  C 2.55 7.0992187499999995  2.0797968750000004 7.583333333333334  1.5 7.583333333333334  C 0.920203125 7.583333333333334  0.44999999999999996 7.0992187499999995  0.44999999999999996 6.5  Z M 2.55 1.0833333333333333  C 2.55 1.6825520833333334  2.0797968750000004 2.1666666666666665  1.5 2.1666666666666665  C 0.920203125 2.1666666666666665  0.44999999999999996 1.6825520833333334  0.44999999999999996 1.0833333333333333  C 0.44999999999999996 0.48513020833333304  0.920203125 0  1.5 0  C 2.0797968750000004 0  2.55 0.48513020833333304  2.55 1.0833333333333333  Z " fill-rule="nonzero" fill="#b5b5b5" stroke="none" transform="matrix(1 0 0 1 1442 728 )" />
  </g>
</svg>