<svg width="14" height="15" viewBox="0 0 14 15" fill="none" xmlns="http://www.w3.org/2000/svg">
<path d="M13.7 0.758008C13.3 0.358008 12.7 0.358008 12.3 0.758008L7 6.05801L1.7 0.758008C1.3 0.358008 0.7 0.358008 0.3 0.758008C-0.1 1.15801 -0.1 1.75801 0.3 2.15801L5.6 7.45801L0.3 12.758C-0.1 13.158 -0.1 13.758 0.3 14.158C0.5 14.358 0.7 14.458 1 14.458C1.3 14.458 1.5 14.358 1.7 14.158L7 8.85801L12.3 14.158C12.5 14.358 12.8 14.458 13 14.458C13.2 14.458 13.5 14.358 13.7 14.158C14.1 13.758 14.1 13.158 13.7 12.758L8.4 7.45801L13.7 2.15801C14.1 1.75801 14.1 1.15801 13.7 0.758008Z" fill="#003356"/>
</svg>
