<svg width="25" height="24" viewBox="0 0 25 24" fill="none" xmlns="http://www.w3.org/2000/svg">
<g clip-path="url(#clip0_12931_66924)">
<path d="M10.3928 19.7661C4.94328 19.7661 0.509766 15.3326 0.509766 9.88306C0.509766 4.43351 4.94328 0 10.3928 0C15.8424 0 20.2759 4.43351 20.2759 9.88306C20.2759 15.3326 15.8424 19.7661 10.3928 19.7661ZM10.3928 1.87357C5.97636 1.87357 2.38333 5.4666 2.38333 9.88306C2.38333 14.2995 5.97636 17.8925 10.3928 17.8925C14.8093 17.8925 18.4023 14.2995 18.4023 9.88306C18.4023 5.4666 14.8093 1.87357 10.3928 1.87357ZM24.2171 23.7256C24.5829 23.3598 24.5829 22.7666 24.2171 22.4008L20.025 18.2087C19.6591 17.8428 19.0659 17.8428 18.7001 18.2087C18.3343 18.5745 18.3343 19.1677 18.7001 19.5335L22.8922 23.7256C23.0751 23.9085 23.3149 24 23.5547 24C23.7944 24 24.0341 23.9085 24.2171 23.7256Z" fill="#2B86AC"/>
</g>
<defs>
<clipPath id="clip0_12931_66924">
<rect width="24" height="24" fill="white" transform="translate(0.5)"/>
</clipPath>
</defs>
</svg>
