<svg width="25" height="25" viewBox="0 0 25 25" fill="none" xmlns="http://www.w3.org/2000/svg">
<path d="M10.698 20.3989C5.24845 20.3989 0.814941 15.9654 0.814941 10.5159C0.814941 5.06632 5.24845 0.632812 10.698 0.632812C16.1475 0.632812 20.5811 5.06632 20.5811 10.5159C20.5811 15.9654 16.1475 20.3989 10.698 20.3989ZM10.698 2.50638C6.28154 2.50638 2.68851 6.09941 2.68851 10.5159C2.68851 14.9323 6.28154 18.5254 10.698 18.5254C15.1145 18.5254 18.7075 14.9323 18.7075 10.5159C18.7075 6.09941 15.1145 2.50638 10.698 2.50638ZM24.5222 24.3584C24.8881 23.9926 24.8881 23.3994 24.5222 23.0336L20.3301 18.8415C19.9643 18.4756 19.3711 18.4756 19.0053 18.8415C18.6395 19.2073 18.6395 19.8005 19.0053 20.1663L23.1974 24.3584C23.3803 24.5413 23.6201 24.6328 23.8598 24.6328C24.0996 24.6328 24.3393 24.5413 24.5222 24.3584Z" fill="#002945"/>
</svg>
