<svg width="25" height="24" viewBox="0 0 25 24" fill="none" xmlns="http://www.w3.org/2000/svg">
<g clip-path="url(#clip0_20322_66432)">
<path d="M10.6367 19.7661C5.23686 19.7661 0.84375 15.3326 0.84375 9.88306C0.84375 4.43351 5.23686 0 10.6367 0C16.0366 0 20.4297 4.43351 20.4297 9.88306C20.4297 15.3326 16.0366 19.7661 10.6367 19.7661ZM10.6367 1.87357C6.26053 1.87357 2.70024 5.4666 2.70024 9.88306C2.70024 14.2995 6.26053 17.8925 10.6367 17.8925C15.013 17.8925 18.5732 14.2995 18.5732 9.88306C18.5732 5.4666 15.013 1.87357 10.6367 1.87357ZM24.335 23.7256C24.6975 23.3598 24.6975 22.7666 24.335 22.4008L20.1811 18.2087C19.8186 17.8428 19.2308 17.8428 18.8683 18.2087C18.5058 18.5745 18.5058 19.1677 18.8683 19.5335L23.0222 23.7256C23.2035 23.9085 23.441 24 23.6786 24C23.9162 24 24.1537 23.9085 24.335 23.7256Z" fill="#003356"/>
</g>
<defs>
<clipPath id="clip0_20322_66432">
<rect width="23.7813" height="24" fill="white" transform="translate(0.835938)"/>
</clipPath>
</defs>
</svg>
