<svg width="152" height="382" viewBox="0 0 152 382" fill="none" xmlns="http://www.w3.org/2000/svg">
<rect opacity="0.9" width="32.0998" height="255.485" rx="16.0499" transform="matrix(-0.783808 0.621004 0.621003 0.783808 -8.87891 150.164)" fill="#2AACE2"/>
<g opacity="0.9">
<rect x="-0.0814021" y="0.702405" width="31.0998" height="197.397" rx="15.5499" transform="matrix(-0.783808 0.621003 0.621004 0.783807 -18.3319 37.8751)" stroke="#3072BE"/>
<rect x="-0.0814021" y="0.702405" width="31.0998" height="197.397" rx="15.5499" transform="matrix(-0.783808 0.621003 0.621004 0.783807 -18.3319 37.8751)" stroke="black" stroke-opacity="0.2"/>
</g>
<rect x="-59.7032" y="46.7699" width="60.2741" height="171.356" rx="30.137" transform="rotate(-38.3895 -59.7032 46.7699)" stroke="#FDB913"/>
<rect x="15.1592" y="187.473" width="14.7683" height="20.1482" rx="7.38416" transform="rotate(-37.1819 15.1592 187.473)" fill="#69CC97"/>
<rect x="34.6601" y="212.049" width="13.7683" height="54.1344" rx="6.88416" transform="rotate(-38.8609 34.6601 212.049)" stroke="#69CC97"/>
<rect x="-23.345" y="139.188" width="13.7683" height="54.1344" rx="6.88416" transform="rotate(-37.7136 -23.345 139.188)" stroke="#69CC97"/>
</svg>
