<svg width="54" height="60" viewBox="0 0 54 60" fill="none" xmlns="http://www.w3.org/2000/svg">
<path d="M12.057 53.6221C13.6918 52.4135 14.9458 49.3419 14.9458 49.3419C14.9458 49.3419 16.3579 48.3613 16.7996 47.1099C17.2414 45.8584 16.8243 44.1588 16.8243 44.1588C16.8243 44.1588 18.0757 40.4849 17.4862 39.455C16.8968 38.4251 14.3953 37.7619 14.3953 37.7619C14.3953 37.7619 13.3654 35.8485 11.2305 35.4806C9.83139 35.3329 8.43359 34.3768 8.43359 32.3896C8.43359 30.4024 10.4208 27.1637 10.4208 27.1637C10.4208 27.1637 12.4819 26.1559 12.776 25.4201C13.07 24.6842 13.1711 22.9691 13.1711 22.9691C13.1711 22.9691 15.1311 19.5102 14.0274 17.5217C13.675 16.8882 12.0401 16.4179 12.0401 16.4179L9.74718 12.9785" stroke="white" stroke-width="1.75" stroke-miterlimit="10" stroke-linecap="round" stroke-linejoin="round"/>
<path d="M47.3586 48.3025C44.8584 47.1042 40.4849 46.1028 40.4849 46.1028C40.4849 46.1028 37.2891 42.5455 35.1917 42.8395C33.0944 43.1336 30.9595 45.4887 30.9595 45.4887C30.9595 45.4887 31.1071 49.8311 30.4439 50.0526C29.7819 50.2729 28.0149 49.0953 26.9112 49.9788C25.8074 50.8623 26.4435 53.3522 26.4435 53.3522C26.4435 53.3522 24.0404 54.1009 23.7464 54.9106C23.4523 55.7202 24.6208 57.5235 24.8436 58.2153" stroke="white" stroke-width="1.75" stroke-miterlimit="10" stroke-linecap="round" stroke-linejoin="round"/>
<path d="M29.8977 6.65795C28.9145 6.54524 27.9221 6.48047 26.9091 6.48047C12.5995 6.48047 1 18.08 1 32.3896C1 46.6991 12.5995 58.2986 26.9091 58.2986C41.2187 58.2986 52.8182 46.6991 52.8182 32.3896C52.8182 30.6355 52.6433 28.9216 52.3117 27.266" stroke="white" stroke-width="1.75" stroke-miterlimit="10" stroke-linecap="round" stroke-linejoin="round"/>
<path d="M39.8629 16.845C42.0093 16.845 43.7493 15.105 43.7493 12.9586C43.7493 10.8123 42.0093 9.07227 39.8629 9.07227C37.7165 9.07227 35.9766 10.8123 35.9766 12.9586C35.9766 15.105 37.7165 16.845 39.8629 16.845Z" stroke="white" stroke-width="1.75" stroke-miterlimit="10" stroke-linecap="round" stroke-linejoin="round"/>
<path d="M51.5233 12.6988C51.5233 20.7306 39.8642 31.0943 39.8642 31.0943C39.8642 31.0943 28.2051 20.7306 28.2051 12.6988C28.2051 5.48444 34.2302 1.29883 39.8642 1.29883C45.4981 1.29883 51.5233 5.48444 51.5233 12.6988Z" stroke="white" stroke-width="1.75" stroke-miterlimit="10" stroke-linecap="round" stroke-linejoin="round"/>
</svg>
