<svg width="50" height="65" viewBox="0 0 50 65" fill="none" xmlns="http://www.w3.org/2000/svg">
<path d="M40.9177 64.738C40.8799 64.7408 40.8419 64.7408 40.8041 64.738C40.651 64.7176 40.5066 64.6549 40.3872 64.5571C40.2677 64.4593 40.1779 64.3302 40.1278 64.1842L38.8805 60.4431C38.8463 60.3395 38.8329 60.2302 38.8409 60.1214C38.849 60.0126 38.8785 59.9064 38.9276 59.809C38.9754 59.711 39.0425 59.6238 39.1249 59.5524C39.2073 59.481 39.3033 59.427 39.4071 59.3936C39.4966 59.3648 39.5903 59.3507 39.6843 59.3521C39.8563 59.352 40.0242 59.4052 40.1646 59.5044C40.3051 59.6036 40.4114 59.7439 40.4687 59.9059L40.9094 61.2295C40.935 61.3027 40.9804 61.3674 41.0406 61.4163C41.1008 61.4652 41.1734 61.4964 41.2503 61.5065H41.3058C41.374 61.5068 41.4413 61.4899 41.5013 61.4575C41.5614 61.4251 41.6123 61.3781 41.6494 61.3209L42.7304 59.7038C42.8061 59.59 42.9086 59.4966 43.029 59.4319C43.1494 59.3672 43.2839 59.3331 43.4206 59.3327C43.5101 59.3337 43.599 59.3486 43.6839 59.377L44.7926 59.7453C44.8348 59.7583 44.8787 59.7648 44.9228 59.7647C44.9805 59.7649 45.0376 59.7532 45.0906 59.7303C45.1435 59.7075 45.1911 59.6739 45.2305 59.6318C45.2823 59.5741 45.3168 59.5029 45.3301 59.4265C45.3433 59.3501 45.3347 59.2715 45.3053 59.1998L43.2016 54.2984C43.1706 54.2251 43.1191 54.1623 43.0532 54.1176C42.9873 54.0729 42.9098 54.0482 42.8302 54.0464C42.7519 54.0462 42.6752 54.0682 42.6089 54.1099C42.5427 54.1516 42.4896 54.2112 42.456 54.2818C42.1123 54.9852 41.6938 55.6664 40.9316 55.9294C40.7408 55.9956 40.5403 56.0293 40.3384 56.0291C39.7148 56.0291 39.1217 55.7245 38.5174 55.3867C38.4551 55.3507 38.3843 55.3316 38.3123 55.3313C38.2671 55.3319 38.2222 55.3394 38.1793 55.3535C38.1241 55.3726 38.0735 55.4028 38.0305 55.4424C37.9876 55.4819 37.9533 55.5299 37.9298 55.5833L34.2157 64.2424C34.157 64.38 34.0621 64.4992 33.9411 64.5875C33.8201 64.6757 33.6775 64.7296 33.5284 64.7436H33.4535C33.3163 64.7436 33.1813 64.7098 33.0604 64.645C32.9395 64.5803 32.8365 64.4867 32.7606 64.3725L30.7761 61.4151C30.7261 61.3387 30.6521 61.2812 30.5658 61.2516C30.4794 61.222 30.3857 61.2221 30.2993 61.2517L27.4611 62.196C27.3717 62.2255 27.2781 62.2404 27.1839 62.2403C27.0686 62.2389 26.9549 62.2135 26.8499 62.1659C26.7449 62.1182 26.651 62.0492 26.5742 61.9634C26.4663 61.8459 26.3946 61.6998 26.3676 61.5427C26.3405 61.3856 26.3593 61.224 26.4217 61.0772L29.9113 52.9388C29.9361 52.8804 29.9472 52.8171 29.9437 52.7538C29.9403 52.6904 29.9223 52.6287 29.8913 52.5734C29.8603 52.518 29.8169 52.4705 29.7647 52.4345C29.7124 52.3985 29.6526 52.3749 29.5898 52.3656C28.7583 52.2437 27.9101 52.061 27.4001 51.3299C26.8458 50.5463 27.0287 49.5494 27.1812 48.6688C27.2893 48.0402 27.3613 47.575 27.2726 47.2842C27.2033 47.0599 26.965 46.7941 26.4855 46.315C25.8313 45.6671 25.0996 44.9499 25.0996 43.9502C25.0996 42.9505 25.823 42.2306 26.4605 41.5992C26.9539 41.1063 27.195 40.8377 27.2643 40.6106C27.353 40.3337 27.2837 39.8657 27.1728 39.2261C27.0204 38.3455 26.8458 37.3458 27.3918 36.5649C27.9378 35.7841 28.9384 35.6207 29.8087 35.4988C30.5571 35.3936 30.8537 35.3188 31.0255 35.1942C31.1974 35.0696 31.4052 34.6875 31.6907 34.0617C32.0677 33.2309 32.4973 32.3005 33.4203 31.9876C33.6083 31.9223 33.806 31.8895 34.0051 31.8907C34.7008 31.8907 35.366 32.2673 35.9453 32.5968C36.5246 32.9263 36.8987 33.1091 37.1482 33.1091C37.3977 33.1091 37.7469 32.9374 38.3483 32.5968C38.9498 32.2562 39.6067 31.8907 40.2885 31.8907C40.4894 31.8893 40.689 31.9221 40.8789 31.9876C41.7991 32.3005 42.2287 33.2365 42.6057 34.0617C42.905 34.7096 43.0741 35.0336 43.2598 35.1693C43.4455 35.305 43.8308 35.3908 44.4877 35.4822C45.3608 35.6068 46.3447 35.7591 46.9074 36.5511C47.47 37.3431 47.2788 38.3289 47.1263 39.2095C47.0155 39.8408 46.9462 40.3171 47.0321 40.594C47.1042 40.8183 47.3453 41.0897 47.8276 41.5688C48.4789 42.214 49.1996 42.9312 49.1996 43.9308C49.1996 44.9305 48.4762 45.6477 47.8387 46.279C47.3425 46.7719 47.1014 47.0405 47.0321 47.2704C46.9462 47.5473 47.0155 48.007 47.1236 48.63C47.2788 49.5217 47.4506 50.5213 46.9046 51.3022C46.3974 52.0333 45.5437 52.216 44.7149 52.3379C44.6518 52.3465 44.5916 52.3698 44.5392 52.4059C44.4867 52.4419 44.4434 52.4898 44.4128 52.5456C44.3817 52.6009 44.3637 52.6627 44.3603 52.7261C44.357 52.7895 44.3683 52.8528 44.3934 52.9111L47.883 61.0468C47.9376 61.1731 47.96 61.311 47.9481 61.4481C47.9362 61.5851 47.8904 61.7171 47.8149 61.8321C47.7393 61.9472 47.6363 62.0416 47.5152 62.1071C47.394 62.1725 47.2585 62.2069 47.1208 62.207C47.032 62.2077 46.9438 62.1927 46.8602 62.1627L44.0192 61.2185C43.9763 61.2044 43.9314 61.1969 43.8862 61.1963C43.818 61.196 43.7507 61.2128 43.6907 61.2452C43.6306 61.2777 43.5797 61.3246 43.5425 61.3818L41.5746 64.3282C41.5066 64.4446 41.4113 64.5428 41.2968 64.6142C41.1824 64.6856 41.0523 64.7281 40.9177 64.738ZM30.9396 59.3355C31.0763 59.3359 31.2108 59.3699 31.3312 59.4347C31.4515 59.4994 31.5541 59.5928 31.6297 59.7065L32.8465 61.5314C32.8845 61.5885 32.936 61.6353 32.9964 61.6676C33.0569 61.7 33.1244 61.7169 33.193 61.7169H33.2318C33.3061 61.7098 33.3772 61.6829 33.4376 61.6391C33.4981 61.5953 33.5456 61.5361 33.5755 61.4677L35.8289 56.2064C35.8616 56.1288 35.8701 56.0431 35.8533 55.9606C35.8365 55.8781 35.7951 55.8025 35.7346 55.7439C35.6603 55.6715 35.5613 55.6299 35.4575 55.6276C35.3954 55.6282 35.3341 55.6414 35.2773 55.6664C34.8947 55.8727 34.47 55.9892 34.0356 56.007C33.8365 56.0082 33.6388 55.9754 33.4507 55.9101C32.6885 55.6525 32.2672 54.9658 31.9263 54.2624C31.8924 54.192 31.8393 54.1326 31.7731 54.0909C31.707 54.0493 31.6303 54.0272 31.5521 54.0271C31.4726 54.0291 31.3953 54.054 31.3295 54.0987C31.2636 54.1433 31.212 54.2059 31.1807 54.279L29.0548 59.1998C29.027 59.2629 29.0155 59.332 29.0213 59.4008C29.0272 59.4695 29.0502 59.5357 29.0882 59.5933C29.1263 59.6509 29.1781 59.698 29.2391 59.7304C29.3001 59.7627 29.3683 59.7793 29.4373 59.7785C29.4815 59.7791 29.5255 59.7725 29.5676 59.7591L30.6763 59.3908C30.7606 59.3587 30.8494 59.34 30.9396 59.3355ZM34.0993 33.5992C34.0389 33.5993 33.9792 33.6128 33.9246 33.6387C33.87 33.6645 33.8217 33.7021 33.7834 33.7487C33.5602 34.0691 33.3742 34.4138 33.229 34.7761C32.9518 35.413 32.6137 36.1191 32.0594 36.54C31.505 36.9609 30.7317 37.0939 30.0637 37.1742C29.3957 37.2545 29.0299 37.3403 28.8386 37.4815C28.7515 37.5499 28.694 37.649 28.6779 37.7584C28.6835 38.1691 28.7356 38.5779 28.8331 38.9769C28.9523 39.6636 29.0881 40.4417 28.8747 41.1285C28.6612 41.8152 28.154 42.3026 27.6551 42.7899C27.1008 43.3438 26.843 43.6207 26.7903 43.8976C26.7779 43.9541 26.7779 44.0127 26.7903 44.0693C26.843 44.3047 27.0814 44.5705 27.6219 45.116L27.644 45.1382C28.1208 45.6117 28.6612 46.1461 28.8664 46.7996C29.0715 47.4531 28.944 48.2617 28.8248 48.9485C28.6973 49.6823 28.6529 50.0755 28.7389 50.3164C28.7586 50.3702 28.7893 50.4193 28.8288 50.4607C28.8684 50.5022 28.9161 50.5351 28.9689 50.5573C29.3079 50.6515 29.6549 50.7136 30.0055 50.7429H30.0554C30.7234 50.837 31.4828 50.945 32.0538 51.377C32.6248 51.809 32.9297 52.504 33.2152 53.1299C33.3625 53.4947 33.5483 53.8428 33.7695 54.1683C33.8084 54.215 33.8572 54.2526 33.9122 54.2784C33.9673 54.3043 34.0274 54.3177 34.0882 54.3178C34.1286 54.3179 34.1687 54.3123 34.2074 54.3012C34.5334 54.1776 34.8471 54.0237 35.1443 53.8415C35.779 53.4843 36.4359 53.116 37.1648 53.116C37.8938 53.116 38.5507 53.4843 39.1826 53.8415C39.4804 54.0244 39.795 54.1784 40.1222 54.3012C40.1601 54.3121 40.1993 54.3177 40.2386 54.3178C40.2995 54.3179 40.3597 54.3045 40.4148 54.2787C40.4699 54.2528 40.5186 54.2151 40.5574 54.1683C40.7789 53.8489 40.9647 53.5062 41.1117 53.1465C41.4055 52.504 41.7298 51.7979 42.2842 51.377C42.8385 50.9561 43.6118 50.837 44.2798 50.7429C44.9478 50.6487 45.3164 50.5767 45.5049 50.4355C45.5487 50.4023 45.5854 50.3607 45.613 50.3131C45.6406 50.2656 45.6585 50.2131 45.6656 50.1586C45.685 50.0312 45.6656 49.8346 45.5104 48.9429C45.3912 48.2562 45.2582 47.4781 45.4689 46.7941C45.6795 46.1101 46.2144 45.5951 46.6912 45.1326L46.7133 45.1132C47.2206 44.6037 47.4756 44.3185 47.5449 44.0693C47.5643 43.9976 47.5643 43.9221 47.5449 43.8505C47.4756 43.5985 47.2012 43.2967 46.6912 42.7872C46.1812 42.2777 45.674 41.7792 45.4689 41.1257C45.2637 40.4722 45.3912 39.6636 45.5104 38.9741C45.6379 38.243 45.6823 37.8498 45.5991 37.6117C45.5803 37.5571 45.55 37.5071 45.5103 37.4651C45.4707 37.4231 45.4225 37.39 45.3691 37.368C45.0299 37.2702 44.6816 37.2071 44.3297 37.1797H44.2798C43.6118 37.0855 42.8524 36.9775 42.2842 36.5456C41.716 36.1136 41.4055 35.4185 41.12 34.7955C40.9744 34.429 40.7885 34.0798 40.5657 33.7543C40.5268 33.7076 40.478 33.67 40.423 33.6441C40.3679 33.6183 40.3078 33.6049 40.247 33.6048C40.2076 33.6048 40.1684 33.6104 40.1305 33.6214C39.8113 33.7405 39.5041 33.8898 39.2131 34.0672C38.5867 34.4216 37.9021 34.8066 37.1731 34.8066C36.4442 34.8066 35.7596 34.4216 35.1553 34.081C34.8566 33.8981 34.5411 33.7442 34.213 33.6214C34.1763 33.6088 34.138 33.6013 34.0993 33.5992Z" fill="#FDB913"/>
<path d="M37.1774 51.0231C35.7795 51.0231 34.413 50.6089 33.2507 49.833C32.0884 49.0571 31.1825 47.9543 30.6475 46.664C30.1126 45.3737 29.9726 43.954 30.2453 42.5842C30.5181 41.2145 31.1912 39.9563 32.1797 38.9687C33.1681 37.9812 34.4275 37.3087 35.7985 37.0362C37.1695 36.7637 38.5906 36.9036 39.8821 37.438C41.1736 37.9725 42.2774 38.8775 43.0541 40.0388C43.8307 41.2 44.2452 42.5652 44.2452 43.9618C44.243 45.8339 43.4977 47.6287 42.1727 48.9524C40.8477 50.2762 39.0512 51.0209 37.1774 51.0231ZM37.1774 38.562C36.1084 38.562 35.0634 38.8787 34.1746 39.472C33.2858 40.0654 32.593 40.9087 32.184 41.8954C31.7749 42.8821 31.6679 43.9678 31.8764 45.0152C32.085 46.0627 32.5997 47.0249 33.3556 47.78C34.1115 48.5352 35.0745 49.0495 36.1229 49.2578C37.1714 49.4662 38.2581 49.3593 39.2457 48.9506C40.2333 48.5419 41.0774 47.8498 41.6713 46.9618C42.2652 46.0738 42.5822 45.0298 42.5822 43.9618C42.5815 42.5299 42.0118 41.1569 40.9983 40.1444C39.9849 39.1319 38.6106 38.5627 37.1774 38.562Z" fill="#FDB913"/>
<path d="M20.8867 59.9267H3.125C2.02043 59.9267 1.125 59.0313 1.125 57.9267V3.67187C1.125 2.5673 2.02043 1.67188 3.125 1.67188H5.84066M46.0952 29.3398V3.67188C46.0952 2.56731 45.1998 1.67188 44.0952 1.67188H12.8429" stroke="#003082" stroke-width="1.5" stroke-linecap="round"/>
<path d="M17.7693 54.1585H12.9876C11.9532 54.1585 11.0894 53.3697 10.9958 52.3395L10.96 51.9452C10.8725 50.9827 10.1093 50.2204 9.14669 50.1342L8.09003 50.0395C7.05877 49.9471 6.26855 49.0829 6.26855 48.0475V14.3416C6.26855 13.237 7.16398 12.3416 8.26855 12.3416H8.80891C9.91348 12.3416 10.8089 11.4462 10.8089 10.3416V9.62378C10.8089 8.51921 11.7043 7.62378 12.8089 7.62378H34.2292C35.3338 7.62378 36.2292 8.51921 36.2292 9.62378V10.1848C36.2292 11.3261 37.2355 12.2056 38.3666 12.0528V12.0528C39.4976 11.8999 40.504 12.7794 40.504 13.9207V25.9915" stroke="#003082" stroke-width="1.5" stroke-linecap="round"/>
<line x1="17.2561" y1="14.3513" x2="30.5644" y2="14.3513" stroke="#003082" stroke-width="1.5" stroke-linecap="round"/>
<line x1="11.5142" y1="21.5635" x2="36.3072" y2="21.5635" stroke="#003082" stroke-width="1.5" stroke-linecap="round" stroke-dasharray="2 6"/>
<line x1="11.5142" y1="28.7794" x2="36.3072" y2="28.7794" stroke="#003082" stroke-width="1.5" stroke-linecap="round" stroke-dasharray="18 4 6 8"/>
<line x1="11.5142" y1="35.9875" x2="22.6099" y2="35.9875" stroke="#003082" stroke-width="1.5" stroke-linecap="round"/>
<line x1="11.5142" y1="43.1996" x2="19.147" y2="43.1996" stroke="#003082" stroke-width="1.5" stroke-linecap="round"/>
</svg>
