<?xml version="1.0" encoding="utf-8"?>
<svg version="1.1" xmlns:xlink="http://www.w3.org/1999/xlink" width="20px" height="20px" xmlns="http://www.w3.org/2000/svg">
  <g>
    <path d="M 13.566875 9.558203125  L 9.19140625 5.18359375  C 8.947265625 4.939453125  8.551562500000001 4.939453125  8.3078125 5.18359375  C 8.0640625 5.427734375  8.063671875 5.823437499999999  8.3078125 6.067187499999999  L 12.2421875 10  L 8.30859375 13.93359375  C 8.064453125 14.177734375  8.064453125 14.573437499999999  8.30859375 14.8171875  C 8.552734375 15.0609375  8.948437499999999 15.061328125  9.1921875 14.8171875  L 13.5671875 10.4421875  C 13.6875 10.3203125  13.75 10.16015625  13.75 10  C 13.75 9.83984375  13.688984375 9.68015625  13.566875 9.558203125  Z M 20 10  C 20 4.476562500000001  15.5234375 0  10 0  C 4.4765625 0  0 4.4765625  0 10  C 0 15.5234375  4.4765625 20  10 20  C 15.5234375 20  20 15.5234375  20 10  Z M 18.75 10  C 18.75 14.82421875  14.82421875 18.75  10 18.75  C 5.17578125 18.75  1.25 14.82421875  1.25 10  C 1.25 5.17578125  5.17578125 1.25  10 1.25  C 14.82421875 1.25  18.75 5.17578125  18.75 10  Z " fill-rule="nonzero" fill="#003356" stroke="none" />
  </g>
</svg>