<?xml version="1.0" encoding="utf-8"?>
<svg version="1.1" xmlns:xlink="http://www.w3.org/1999/xlink" width="20px" height="20px" xmlns="http://www.w3.org/2000/svg">
  <g>
    <path d="M 11.69140625 6.06640625  C 11.9375 5.82421875  11.9375 5.42578125  11.69140625 5.18359375  C 11.447265625 4.939453125  11.051562500000001 4.939453125  10.8078125 5.18359375  L 6.432812500000001 9.55859375  C 6.3125 9.6796875  6.25 9.83984375  6.25 10  C 6.25 10.16015625  6.3110156250000005 10.31984375  6.4331249999999995 10.441796875  L 10.808125 14.816796875  C 11.052265625 15.0609375  11.44796875 15.0609375  11.69171875 14.816796875  C 11.93546875 14.57265625  11.935859375 14.176953125  11.69171875 13.933203125  L 7.7578125 10  L 11.69140625 6.06640625  Z M 20 10  C 20 4.476562500000001  15.5234375 0  10 0  C 4.4765625 0  0 4.4765625  0 10  C 0 15.5234375  4.4765625 20  10 20  C 15.5234375 20  20 15.5234375  20 10  Z M 18.75 10  C 18.75 14.82421875  14.82421875 18.75  10 18.75  C 5.17578125 18.75  1.25 14.82421875  1.25 10  C 1.25 5.17578125  5.17578125 1.25  10 1.25  C 14.82421875 1.25  18.75 5.17578125  18.75 10  Z " fill-rule="nonzero" fill="#FFFFFF" stroke="none" />
  </g>
</svg>