<svg width="36" height="29" viewBox="0 0 36 29" fill="none" xmlns="http://www.w3.org/2000/svg">
<path d="M35.2912 3.65303C34.0039 4.22345 32.6211 4.60887 31.1673 4.78308C32.6673 3.88551 33.7895 2.47284 34.3246 0.808659C32.9153 1.64577 31.3728 2.235 29.7643 2.55074C28.6827 1.39583 27.25 0.630329 25.6887 0.373098C24.1274 0.115868 22.5248 0.381296 21.1298 1.12817C19.7348 1.87505 18.6255 3.06159 17.9739 4.50358C17.3224 5.94556 17.1651 7.56232 17.5266 9.10283C14.6709 8.95945 11.8774 8.21722 9.32712 6.9243C6.77689 5.63139 4.52701 3.8167 2.72351 1.59799C2.10684 2.66174 1.75226 3.89508 1.75226 5.20858C1.75157 6.39103 2.04276 7.55537 2.59999 8.59829C3.15722 9.64121 3.96326 10.5305 4.94659 11.1872C3.80618 11.1509 2.69094 10.8427 1.69367 10.2884V10.3809C1.69356 12.0393 2.26723 13.6467 3.31733 14.9303C4.36744 16.2139 5.82931 17.0947 7.45488 17.4232C6.39697 17.7095 5.28782 17.7517 4.21122 17.5465C4.66986 18.9735 5.56325 20.2214 6.76632 21.1154C7.9694 22.0094 9.42192 22.5048 10.9206 22.5323C8.37654 24.5294 5.23471 25.6127 2.00047 25.6079C1.42755 25.6081 0.855125 25.5746 0.286133 25.5077C3.56908 27.6185 7.39066 28.7388 11.2936 28.7344C24.5057 28.7344 31.7284 17.7917 31.7284 8.30116C31.7284 7.99283 31.7207 7.68141 31.7068 7.37308C33.1118 6.35708 34.3245 5.09896 35.2881 3.65766L35.2912 3.65303Z" fill="white"/>
</svg>
