<svg width="14" height="12" viewBox="0 0 14 12" fill="none" xmlns="http://www.w3.org/2000/svg">
<path opacity="0.7" d="M13.7918 1.71765C13.3047 1.93348 12.7815 2.07932 12.2314 2.14523C12.799 1.80561 13.2236 1.27109 13.426 0.641399C12.8928 0.958143 12.3092 1.1811 11.7005 1.30057C11.2913 0.86357 10.7492 0.573922 10.1584 0.476592C9.56764 0.379261 8.96127 0.479694 8.43344 0.762296C7.9056 1.0449 7.48583 1.49386 7.2393 2.03948C6.99277 2.58509 6.93328 3.19684 7.07005 3.77973C5.98953 3.72548 4.9325 3.44464 3.96755 2.95543C3.00259 2.46622 2.15129 1.77958 1.46888 0.940066C1.23555 1.34257 1.10138 1.80923 1.10138 2.30623C1.10112 2.75365 1.2113 3.19421 1.42214 3.58883C1.63299 3.98345 1.93798 4.31992 2.31005 4.5684C1.87854 4.55467 1.45656 4.43807 1.07921 4.22832V4.26332C1.07917 4.89083 1.29623 5.49904 1.69357 5.98473C2.09091 6.47042 2.64405 6.80369 3.25913 6.92798C2.85884 7.03632 2.43916 7.05227 2.0318 6.97465C2.20534 7.51459 2.54338 7.98675 2.9986 8.32502C3.45381 8.6633 4.00342 8.85075 4.57046 8.86115C3.60787 9.61681 2.41907 10.0267 1.1953 10.0249C0.97852 10.025 0.761925 10.0123 0.546631 9.98698C1.78883 10.7857 3.23483 11.2095 4.71163 11.2079C9.7108 11.2079 12.4437 7.0674 12.4437 3.4764C12.4437 3.35973 12.4408 3.2419 12.4355 3.12523C12.9671 2.7408 13.426 2.26475 13.7906 1.7194L13.7918 1.71765Z" fill="#151515"/>
</svg>
