<svg width="62" height="62" viewBox="0 0 62 62" fill="none" xmlns="http://www.w3.org/2000/svg">
<path d="M9.55859 19.9473V40.9999C9.55859 46.2325 18.9839 50.4736 30.6112 50.4736C32.6952 50.4736 34.7085 50.3373 36.6094 50.0836M51.6639 19.9473V30.4736" stroke="#377D82" stroke-width="2" stroke-miterlimit="10" stroke-linecap="round" stroke-linejoin="round"/>
<path d="M19.1968 53.6319L24.4599 61.0003H13.9336L19.1968 53.6319ZM19.1968 53.6319V24.1582" stroke="#F7B524" stroke-width="2" stroke-miterlimit="10" stroke-linejoin="round"/>
<path d="M30.6104 30.4737L1.13672 15.7368L30.6104 1L60.0841 15.7368L30.6104 30.4737Z" stroke="#377D82" stroke-width="2" stroke-miterlimit="10" stroke-linecap="square" stroke-linejoin="round"/>
<path d="M60.8633 50.625H42.1133V54.375H60.8633V50.625Z" stroke="#F7B524" stroke-width="2" stroke-linecap="round" stroke-linejoin="round"/>
<path d="M55.8633 46.875L52.1133 35.625H50.8633L47.1133 46.875" stroke="#F7B524" stroke-width="2" stroke-linecap="round" stroke-linejoin="round"/>
<path d="M45.8633 46.875H49.6133" stroke="#F7B524" stroke-width="2" stroke-linecap="round" stroke-linejoin="round"/>
<path d="M53.3633 46.875H57.1133" stroke="#F7B524" stroke-width="2" stroke-linecap="round" stroke-linejoin="round"/>
<path d="M48.7773 41.875H54.1948" stroke="#F7B524" stroke-width="2" stroke-linecap="round" stroke-linejoin="round"/>
</svg>
