<svg width="83" height="84" viewBox="0 0 83 84" fill="none" xmlns="http://www.w3.org/2000/svg">
<path d="M63.6511 33.9387C62.682 35.5934 61.2931 36.9666 59.6233 37.9211C57.9535 38.8757 56.0609 39.3782 54.1346 39.3786V39.3786C52.6893 39.3786 51.2584 39.0958 49.9231 38.546C48.5878 37.9963 47.3745 37.1904 46.3525 36.1746C45.3305 35.1589 44.5199 33.953 43.9668 32.6258C43.4137 31.2986 43.1289 29.8761 43.1289 28.4396V20.3516" stroke="#A03137" stroke-width="2.5" stroke-linecap="round" stroke-linejoin="round"/>
<path d="M63.6513 33.9375V43.5737L72.7252 46.9578C75.2209 47.8815 77.3731 49.5406 78.8943 51.7132C80.4154 53.8858 81.2329 56.4683 81.2371 59.1152V75.0796C81.2371 75.9884 81.0571 76.8884 80.7072 77.728C80.3573 78.5676 79.8442 79.3305 79.1977 79.9731C78.5511 80.6157 77.7835 81.1255 76.9388 81.4733C76.094 81.821 75.1886 82.0001 74.2742 82.0001H53.0625" stroke="#A03137" stroke-width="2.5" stroke-linecap="round" stroke-linejoin="round"/>
<path d="M63.7672 6.76312C62.3713 3.79357 58.4814 2 54.7021 2C45.9007 2 38.7422 9.70723 38.7422 18.4466C38.7422 18.4466 53.9955 25.5363 61.6392 14.428C61.6392 14.428 60.0302 21.5008 67.5548 25.4263C68.406 25.5786 69.1638 24.0051 69.4958 22.736C69.9391 20.5734 70.1443 18.3692 70.1084 16.1624V16.1624C70.1111 14.1414 69.51 12.165 68.3811 10.4841C67.2521 8.80316 65.6462 7.49334 63.7672 6.72077" stroke="#A03137" stroke-width="2.5" stroke-linecap="round" stroke-linejoin="round"/>
<path d="M33.7891 52.5387C35.3053 49.9735 37.6611 48.0027 40.4627 46.955L49.5362 43.5709V38.3594" stroke="#A03137" stroke-width="2.5" stroke-linecap="round" stroke-linejoin="round"/>
<path d="M63.6502 43.5742C63.6502 43.5742 62.0414 47.3644 56.5938 49.4964" stroke="#A03137" stroke-width="2.5" stroke-linecap="round" stroke-linejoin="round"/>
<path d="M49.5391 43.5742C49.5391 43.5742 51.1479 47.3644 56.5955 49.4964" stroke="#A03137" stroke-width="2.5" stroke-linecap="round" stroke-linejoin="round"/>
<path d="M67.0216 25.1641C67.5976 25.5676 68.0682 26.1021 68.394 26.7232C68.7198 27.3443 68.8914 28.0338 68.8944 28.7343V28.7343C68.8944 30.6886 66.9025 32.1183 64.9277 32.1183C64.5936 32.1183 64.2733 32.2503 64.037 32.4851C63.8008 32.7199 63.668 33.0384 63.668 33.3704V33.3704" stroke="#A03137" stroke-width="2.5" stroke-linecap="round" stroke-linejoin="round"/>
<path d="M6.38971 52.582H48.4217C49.6499 52.582 50.8282 53.0652 51.699 53.926C52.5699 54.7868 53.0625 55.9552 53.0692 57.1759V81.9729H1.74219V57.1759C1.74894 55.9552 2.24156 54.7868 3.11241 53.926C3.98326 53.0652 5.16152 52.582 6.38971 52.582V52.582Z" stroke="#003356" stroke-width="2.5" stroke-linecap="round" stroke-linejoin="round"/>
<path d="M25.2109 69.1495H25.2109V69.1462C25.2109 68.5125 25.4641 67.903 25.9176 67.4523C26.3715 67.0012 26.989 66.7461 27.6348 66.7461C28.2807 66.7461 28.8982 67.0012 29.3521 67.4523C29.8059 67.9033 30.0592 68.5129 30.0591 69.1462L30.0592 69.1495C30.0598 69.4625 29.9981 69.7736 29.8772 70.0646C29.7565 70.3551 29.5791 70.6196 29.3546 70.8427C29.1302 71.0657 28.863 71.2431 28.5682 71.3641C28.2734 71.4851 27.9574 71.5471 27.6381 71.5464L27.6316 71.5464C27.3123 71.5471 26.9963 71.4851 26.7015 71.3641C26.4067 71.2431 26.1395 71.0657 25.9151 70.8427L24.8576 71.9066L25.9151 70.8427C25.6906 70.6196 25.5132 70.3551 25.3925 70.0646C25.2719 69.7743 25.2103 69.4634 25.2109 69.1495Z" fill="#A03137" stroke="#003356" stroke-width="3"/>
<path d="M70.7829 61.6523V71.83H58.2891" stroke="#A03137" stroke-width="2.5" stroke-linecap="round" stroke-linejoin="round"/>
</svg>
