<svg width="24" height="24" viewBox="0 0 24 24" fill="none" xmlns="http://www.w3.org/2000/svg">
<path d="M9.8008 19.7661C4.40092 19.7661 0.0078125 15.3326 0.0078125 9.88306C0.0078125 4.43351 4.40092 0 9.8008 0C15.2007 0 19.5938 4.43351 19.5938 9.88306C19.5938 15.3326 15.2007 19.7661 9.8008 19.7661ZM9.8008 1.87357C5.42459 1.87357 1.8643 5.4666 1.8643 9.88306C1.8643 14.2995 5.42459 17.8925 9.8008 17.8925C14.177 17.8925 17.7373 14.2995 17.7373 9.88306C17.7373 5.4666 14.177 1.87357 9.8008 1.87357ZM23.4991 23.7256C23.8615 23.3598 23.8615 22.7666 23.4991 22.4008L19.3452 18.2087C18.9826 17.8428 18.3949 17.8428 18.0324 18.2087C17.6699 18.5745 17.6699 19.1677 18.0324 19.5335L22.1863 23.7256C22.3675 23.9085 22.6051 24 22.8427 24C23.0803 24 23.3178 23.9085 23.4991 23.7256Z" fill="#003356"/>
</svg>
