<svg width="95" height="96" viewBox="0 0 95 96" fill="none" xmlns="http://www.w3.org/2000/svg">
<g clip-path="url(#clip0_6835_93708)">
<circle opacity="0.6" cx="47.4297" cy="47.8093" r="47.5" fill="#151515"/>
<path d="M67.8899 45.2811L37.5105 26.5217C34.7763 26.5217 32.5391 28.965 32.5391 31.9515V65.4321C32.5391 67.9932 34.1861 70.1458 36.3784 70.7137L67.8899 51.9757C74.5611 48.0083 67.8899 45.2811 67.8899 45.2811Z" fill="white"/>
<path d="M47.4994 0.222656C21.3083 0.222656 0 21.5308 0 47.7221C0 73.9134 21.3083 95.2226 47.4994 95.2226C73.6906 95.2226 95 73.9134 95 47.7221C95 21.5308 73.6917 0.222656 47.4994 0.222656ZM47.4994 89.8546C24.203 89.8546 5.24854 70.9539 5.24854 47.7221C5.24854 24.4903 24.203 5.58953 47.4994 5.58953C70.7959 5.58953 89.7515 24.4903 89.7515 47.7221C89.7515 70.9539 70.797 89.8546 47.4994 89.8546Z" fill="white"/>
</g>
<defs>
<clipPath id="clip0_6835_93708">
<rect y="0.222656" width="95" height="95" rx="47.5" fill="white"/>
</clipPath>
</defs>
</svg>
