<svg width="557" height="587" viewBox="0 0 557 587" fill="none" xmlns="http://www.w3.org/2000/svg">
<rect x="401.532" y="492.045" width="16.6805" height="97.4762" rx="8.34024" transform="rotate(-37.1819 401.532 492.045)" fill="#69CC97"/>
<rect x="190.274" y="173.942" width="15.6805" height="112.339" rx="7.84024" transform="rotate(-38.8609 190.274 173.942)" stroke="#69CC97"/>
<rect opacity="0.9" x="-0.0814022" y="0.702406" width="35.256" height="287.564" rx="17.628" transform="matrix(-0.783808 0.621004 0.621004 0.783808 28.1836 0.432203)" stroke="white"/>
<rect opacity="0.9" x="-0.0814022" y="0.702406" width="21.0076" height="287.564" rx="10.5038" transform="matrix(-0.783808 0.621004 0.621004 0.783808 274.274 324.011)" stroke="#FDB913"/>
<rect x="383" y="467.616" width="16.6805" height="22.7569" rx="8.34024" transform="rotate(-37.1819 383 467.616)" fill="#69CC97"/>
<rect x="123.976" y="90.323" width="15.6805" height="13.3539" rx="6.67696" transform="rotate(-38.8609 123.976 90.323)" stroke="#69CC97"/>
<rect x="142.877" y="115.083" width="15.6805" height="65.1109" rx="7.84024" transform="rotate(-38.8609 142.877 115.083)" stroke="#69CC97"/>
<rect x="79.6901" y="37.1296" width="15.6805" height="61.273" rx="7.84024" transform="rotate(-38.8609 79.6901 37.1296)" stroke="#69CC97"/>
<rect opacity="0.9" width="36.256" height="537.834" rx="18.128" transform="matrix(-0.783808 0.621004 0.621004 0.783808 222.821 142.792)" fill="#2AACE2"/>
</svg>
