<svg width="74" height="62" viewBox="0 0 74 62" fill="none" xmlns="http://www.w3.org/2000/svg">
<path d="M6.44727 10.1667C10.0473 14.9667 14.8473 16.8334 21.3806 16.8334C27.9139 16.8334 32.5806 14.9667 36.3139 10.1667" stroke="#F7B524" stroke-width="2" stroke-miterlimit="10"/>
<path d="M6.44727 36.8334C10.0473 32.0334 14.8473 30.1667 21.3806 30.1667" stroke="#F7B524" stroke-width="2" stroke-miterlimit="10"/>
<path d="M32.0466 23.5C32.0466 14.5667 28.4465 6.83333 21.3799 3.5" stroke="#F7B524" stroke-width="2" stroke-miterlimit="10"/>
<path d="M21.3796 43.5C14.3129 40.1667 10.7129 32.4333 10.7129 23.5C10.7129 14.5667 14.3129 6.83333 21.3796 3.5" stroke="#F7B524" stroke-width="2" stroke-miterlimit="10"/>
<path d="M21.3799 43.5V41.6333V5.36667V3.5" stroke="#F7B524" stroke-width="2" stroke-miterlimit="10"/>
<path d="M1.37988 23.5H41.3799" stroke="#F7B524" stroke-width="2" stroke-miterlimit="10"/>
<path d="M41.3799 23.5C41.3799 12.4543 32.4256 3.5 21.3799 3.5C10.3342 3.5 1.37988 12.4543 1.37988 23.5C1.37988 34.5457 10.3342 43.5 21.3799 43.5" stroke="#F7B524" stroke-width="2" stroke-miterlimit="10" stroke-linecap="square"/>
<path d="M28.9492 39.3376H31.4353" stroke="#377D82" stroke-width="2" stroke-miterlimit="10" stroke-linecap="round" stroke-linejoin="round"/>
<path d="M28.9492 33.1318H31.4353" stroke="#377D82" stroke-width="2" stroke-miterlimit="10" stroke-linecap="round" stroke-linejoin="round"/>
<path d="M35.3291 39.3376H37.8152" stroke="#377D82" stroke-width="2" stroke-miterlimit="10" stroke-linecap="round" stroke-linejoin="round"/>
<path d="M35.3291 33.1318H37.8152" stroke="#377D82" stroke-width="2" stroke-miterlimit="10" stroke-linecap="round" stroke-linejoin="round"/>
<path d="M50.0898 21.6299H52.5759" stroke="#377D82" stroke-width="2" stroke-miterlimit="10" stroke-linecap="round" stroke-linejoin="round"/>
<path d="M50.0898 15.4241H52.5759" stroke="#377D82" stroke-width="2" stroke-miterlimit="10" stroke-linecap="round" stroke-linejoin="round"/>
<path d="M56.4707 21.6299H58.9568" stroke="#377D82" stroke-width="2" stroke-miterlimit="10" stroke-linecap="round" stroke-linejoin="round"/>
<path d="M56.4707 15.4241H58.9568" stroke="#377D82" stroke-width="2" stroke-miterlimit="10" stroke-linecap="round" stroke-linejoin="round"/>
<path d="M62.8506 21.6299H65.3367" stroke="#377D82" stroke-width="2" stroke-miterlimit="10" stroke-linecap="round" stroke-linejoin="round"/>
<path d="M50.0898 28.1848H52.5759" stroke="#377D82" stroke-width="2" stroke-miterlimit="10" stroke-linecap="round" stroke-linejoin="round"/>
<path d="M56.4707 28.1848H58.9568" stroke="#377D82" stroke-width="2" stroke-miterlimit="10" stroke-linecap="round" stroke-linejoin="round"/>
<path d="M62.8506 28.1848H65.3367" stroke="#377D82" stroke-width="2" stroke-miterlimit="10" stroke-linecap="round" stroke-linejoin="round"/>
<path d="M62.8506 15.4241H65.3367" stroke="#377D82" stroke-width="2" stroke-miterlimit="10" stroke-linecap="round" stroke-linejoin="round"/>
<path d="M50.0898 34.75H52.5759" stroke="#377D82" stroke-width="2" stroke-miterlimit="10" stroke-linecap="round" stroke-linejoin="round"/>
<path d="M56.4707 34.75H58.9568" stroke="#377D82" stroke-width="2" stroke-miterlimit="10" stroke-linecap="round" stroke-linejoin="round"/>
<path d="M62.8506 34.75H65.3367" stroke="#377D82" stroke-width="2" stroke-miterlimit="10" stroke-linecap="round" stroke-linejoin="round"/>
<path d="M42.0651 23.7548V1L72.6208 6.55785V60.9899H21.3789V23.7548H46.2023V60.9899" stroke="#377D82" stroke-width="2" stroke-miterlimit="10" stroke-linecap="round" stroke-linejoin="round"/>
<rect x="30.9502" y="48.9207" width="4.78524" height="11.9631" stroke="#377D82" stroke-width="2" stroke-linejoin="round"/>
<rect x="56.3779" y="43.5" width="5" height="17.5" stroke="#377D82" stroke-width="2" stroke-linejoin="round"/>
</svg>
