<svg width="261" height="444" viewBox="0 0 261 444" fill="none" xmlns="http://www.w3.org/2000/svg">
<rect opacity="0.8" width="51.2488" height="222.826" rx="25.6244" transform="matrix(-0.772699 0.634772 0.616079 0.787685 134.637 76.4453)" fill="#2AACE2"/>
<rect width="75.219" height="463.127" rx="37.6095" transform="matrix(-0.783808 0.621004 0.621004 0.783808 58.957 0)" stroke="#003082"/>
<rect width="14.467" height="66.0441" rx="7.23351" transform="matrix(-0.888745 0.458402 0.618447 0.785826 181.119 60.0898)" fill="#69CC97"/>
<rect width="14.467" height="26.3521" rx="7.23351" transform="matrix(-0.888745 0.458402 0.618447 0.785826 156.951 25)" fill="#69CC97"/>
<rect opacity="0.9" width="23.4863" height="191.383" rx="11.7432" transform="matrix(-0.772426 0.635105 0.61574 0.787949 176.82 128.044)" fill="#FDB913"/>
<g opacity="0.5">
<rect x="203.408" y="347.63" width="14.7683" height="35.0311" rx="7.38416" transform="rotate(-37.1819 203.408 347.63)" fill="#FDB913"/>
<rect x="229.479" y="379.795" width="14.7683" height="78.3453" rx="7.38416" transform="rotate(-37.1819 229.479 379.795)" fill="#FDB913"/>
<rect x="187" y="326" width="14.7683" height="20.1482" rx="7.38416" transform="rotate(-37.1819 187 326)" fill="#FDB913"/>
</g>
</svg>
